<svg width="34" height="34" viewBox="0 0 34 34" fill="none" xmlns="http://www.w3.org/2000/svg">
<g id="simple-line-icons:clock">
<path id="Vector" d="M17 0C7.61122 0 0 7.61122 0 17C0 26.3893 7.61122 34 17 34C26.3893 34 34 26.3893 34 17C34 7.61122 26.3893 0 17 0ZM17 31.9085C8.79803 31.9085 2.125 25.202 2.125 16.9999C2.125 8.79796 8.79803 2.12493 17 2.12493C25.202 2.12493 31.875 8.798 31.875 16.9999C31.875 25.2019 25.202 31.9085 17 31.9085ZM18.0625 16.5686V6.37507C18.0625 5.78857 17.5865 5.31257 17 5.31257C16.4135 5.31257 15.9375 5.78857 15.9375 6.37507V17.0001C15.9375 17.3008 16.0634 17.5712 16.2647 17.764C16.2823 17.7847 16.2966 17.807 16.3158 17.8266L21.5746 23.086C21.9895 23.5004 22.6621 23.5004 23.077 23.086C23.4919 22.6711 23.4919 21.998 23.077 21.5831L18.0625 16.5686Z" fill="#E44D0C"/>
</g>
</svg>
