<svg width="33" height="32" viewBox="0 0 33 32" fill="none" xmlns="http://www.w3.org/2000/svg">
<path id="Vector" d="M31.9 13.5311H33V13.1889L32.8438 12.896L31.9 13.5311ZM1.1 13.5311L0.1562 12.896L0 13.1938V13.5335L1.1 13.5311ZM7.7 25.8462V24.6154H6.6V25.8462H7.7ZM25.3 25.8462H26.4V24.6154H25.3V25.8462ZM30.8 13.5311V28.3077H33V13.5311H30.8ZM2.0438 14.1637L6.721 5.44985L4.8334 4.17969L0.1562 12.896L2.0438 14.1637ZM11.4356 2.46154H21.5644V1.00306e-07H11.4356V2.46154ZM26.279 5.44738L30.9562 14.1637L32.8438 12.896L28.1666 4.17969L26.279 5.44738ZM5.5 29.5385H3.3V32H5.5V29.5385ZM6.6 25.8462V28.3077H8.8V25.8462H6.6ZM29.7 29.5385H27.5V32H29.7V29.5385ZM26.4 28.3077V25.8462H24.2V28.3077H26.4ZM25.3 24.6154H7.7V27.0769H25.3V24.6154ZM2.2 28.3077V13.5311L0 13.5335V28.3077H2.2ZM27.5 29.5385C27.2083 29.5385 26.9285 29.4088 26.7222 29.178C26.5159 28.9472 26.4 28.6341 26.4 28.3077H24.2C24.2 29.287 24.5477 30.2261 25.1665 30.9186C25.7854 31.611 26.6248 32 27.5 32V29.5385ZM5.5 32C6.37521 32 7.21458 31.611 7.83345 30.9186C8.45232 30.2261 8.8 29.287 8.8 28.3077H6.6C6.6 28.6341 6.48411 28.9472 6.27782 29.178C6.07153 29.4088 5.79174 29.5385 5.5 29.5385V32ZM3.3 29.5385C3.00826 29.5385 2.72847 29.4088 2.52218 29.178C2.31589 28.9472 2.2 28.6341 2.2 28.3077H0C0 29.287 0.347678 30.2261 0.966548 30.9186C1.58542 31.611 2.42479 32 3.3 32V29.5385ZM21.5644 2.46154C22.5137 2.46166 23.4469 2.73671 24.2731 3.25994C25.0992 3.78317 25.7903 4.53675 26.279 5.44738L28.1666 4.17969C27.4822 2.90462 26.5144 1.84951 25.3574 1.11706C24.2005 0.384611 22.8937 -0.000226833 21.5644 1.00306e-07V2.46154ZM6.721 5.44985C7.20972 4.53922 7.90078 3.78317 8.72695 3.25994C9.55312 2.73671 10.4863 2.46166 11.4356 2.46154V1.00306e-07C10.1066 0.000198068 8.80036 0.385238 7.64381 1.11767C6.48726 1.85009 5.51762 2.90497 4.8334 4.17969L6.721 5.44985ZM30.8 28.3077C30.8 28.6341 30.6841 28.9472 30.4778 29.178C30.2715 29.4088 29.9917 29.5385 29.7 29.5385V32C30.5752 32 31.4146 31.611 32.0335 30.9186C32.6523 30.2261 33 29.287 33 28.3077H30.8ZM4.4 22.1538H11V19.6923H4.4V22.1538ZM28.6 19.6923H22V22.1538H28.6V19.6923ZM6.6 14.7692H26.4V12.3077H6.6V14.7692Z" fill="#E44D0C"/>
</svg>
