<svg width="75" height="75" viewBox="0 0 75 75" fill="none" xmlns="http://www.w3.org/2000/svg">
<g id="mdi:like-outline">
<path id="Vector" d="M15.625 28.125V65.625H3.125V28.125H15.625ZM28.125 65.625C26.4674 65.625 24.8777 64.9665 23.7056 63.7944C22.5335 62.6223 21.875 61.0326 21.875 59.375V28.125C21.875 26.4062 22.5625 24.8438 23.7188 23.7188L44.2812 3.125L47.5938 6.4375C48.4375 7.28125 48.9688 8.4375 48.9688 9.71875L48.875 10.7188L45.9062 25H65.625C67.2826 25 68.8723 25.6585 70.0444 26.8306C71.2165 28.0027 71.875 29.5924 71.875 31.25V37.5C71.875 38.3125 71.7188 39.0625 71.4375 39.7812L62 61.8125C61.0625 64.0625 58.8438 65.625 56.25 65.625H28.125ZM28.125 59.375H56.3438L65.625 37.5V31.25H38.1562L41.6875 14.625L28.125 28.2188V59.375Z" fill="white"/>
</g>
</svg>
