<svg width="34" height="34" viewBox="0 0 34 34" fill="none" xmlns="http://www.w3.org/2000/svg">
<path d="M14.25 22.9583C13.8963 22.9313 13.5672 22.7667 13.3333 22.5L7.83334 17C7.7108 16.7434 7.67082 16.4551 7.7189 16.1749C7.76698 15.8946 7.90077 15.6362 8.10183 15.4351C8.30289 15.2341 8.56134 15.1003 8.84158 15.0522C9.12183 15.0041 9.41009 15.0441 9.66667 15.1667L14.195 19.695L29.8333 4.16665C30.0899 4.04411 30.3782 4.00413 30.6584 4.05221C30.9387 4.1003 31.1971 4.23408 31.3982 4.43514C31.5993 4.6362 31.733 4.89465 31.7811 5.1749C31.8292 5.45514 31.7892 5.74341 31.6667 5.99999L15.1667 22.5C14.9328 22.7667 14.6037 22.9313 14.25 22.9583Z" fill="#E44D0C"/>
<path d="M17 33.5C14.051 33.4952 11.1572 32.7002 8.61965 31.1977C6.08214 29.6952 3.99368 27.5401 2.57162 24.9566C1.49066 23.0316 0.822578 20.9025 0.609954 18.705C0.274419 15.4821 0.895239 12.2318 2.39497 9.3595C3.8947 6.48718 6.20696 4.12002 9.04329 2.55331C10.9683 1.47235 13.0974 0.804265 15.295 0.591642C17.4842 0.356147 19.6985 0.56822 21.8033 1.21498C21.9911 1.25251 22.1691 1.32887 22.3257 1.43917C22.4823 1.54948 22.6141 1.69128 22.7127 1.85551C22.8113 2.01973 22.8745 2.20274 22.8983 2.39282C22.922 2.58289 22.9058 2.77583 22.8506 2.95927C22.7955 3.14271 22.7026 3.3126 22.578 3.45805C22.4533 3.6035 22.2997 3.72131 22.1268 3.80391C21.954 3.88651 21.7658 3.93209 21.5743 3.93773C21.3829 3.94337 21.1923 3.90894 21.015 3.83664C19.2341 3.30116 17.3642 3.12664 15.515 3.32331C13.6871 3.51047 11.916 4.06549 10.3083 4.95498C8.75936 5.8095 7.38988 6.95488 6.27496 8.32831C5.12703 9.72743 4.26983 11.3416 3.75355 13.0761C3.23727 14.8107 3.0723 16.6308 3.26829 18.43C3.45545 20.2578 4.01047 22.0289 4.89996 23.6366C5.75448 25.1856 6.89986 26.555 8.27329 27.67C9.67241 28.8179 11.2865 29.6751 13.0211 30.1914C14.7557 30.7077 16.5758 30.8726 18.375 30.6766C20.2028 30.4895 21.9739 29.9345 23.5816 29.045C25.1305 28.1905 26.5 27.0451 27.615 25.6716C28.7629 24.2725 29.6201 22.6584 30.1364 20.9238C30.6526 19.1893 30.8176 17.3691 30.6216 15.57C30.5852 15.1883 30.7018 14.8077 30.9459 14.5121C31.19 14.2164 31.5416 14.0298 31.9233 13.9933C32.305 13.9568 32.6855 14.0735 32.9812 14.3176C33.2769 14.5617 33.4635 14.9133 33.5 15.295C33.8338 18.5197 33.2102 21.7714 31.7071 24.6439C30.204 27.5164 27.888 29.8825 25.0483 31.4466C23.1028 32.5718 20.9408 33.2717 18.705 33.5H17Z" fill="#E44D0C"/>
</svg>
