<svg width="34" height="34" viewBox="0 0 34 34" fill="none" xmlns="http://www.w3.org/2000/svg">
<g id="prime:shield" clip-path="url(#clip0_2_5990)">
<path id="Vector" d="M17 34C16.8148 33.9977 16.6313 33.9649 16.4568 33.9028C11.188 31.5614 6.78026 27.6311 3.84848 22.6602C0.916709 17.6893 -0.39288 11.9257 0.102416 6.17362C0.119372 5.84907 0.245594 5.53984 0.460502 5.29635C0.67541 5.05286 0.966329 4.88947 1.28583 4.83282C6.53131 4.03747 11.6265 2.45204 16.3986 0.13032C16.5875 0.0444331 16.7926 0 17 0C17.2075 0 17.4125 0.0444331 17.6014 0.13032C22.3735 2.45204 27.4687 4.03747 32.7142 4.83282C33.0337 4.88947 33.3246 5.05286 33.5395 5.29635C33.7544 5.53984 33.8806 5.84907 33.8976 6.17362C34.3929 11.9257 33.0833 17.6893 30.1515 22.6602C27.2197 27.6311 22.812 31.5614 17.5432 33.9028C17.3687 33.9649 17.1852 33.9977 17 34ZM2.95425 7.49498C2.66527 12.3664 3.85151 17.2118 6.35768 21.3967C8.86385 25.5816 12.5732 28.9111 17 30.9492C21.4268 28.9111 25.1362 25.5816 27.6423 21.3967C30.1485 17.2118 31.3347 12.3664 31.0458 7.49498C26.1813 6.66794 21.4545 5.17043 17 3.04509C12.5455 5.17043 7.81873 6.66794 2.95425 7.49498Z" fill="#E44D0C"/>
</g>
<defs>
<clipPath id="clip0_2_5990">
<rect width="34" height="34" fill="white"/>
</clipPath>
</defs>
</svg>
