<svg width="90" height="89" viewBox="0 0 90 89" fill="none" xmlns="http://www.w3.org/2000/svg">
<g id="mdi:auto-pay">
<path id="Vector" d="M65.625 62.3742L74.775 67.603L71.9625 72.4238L60 65.6005V51.9167H65.625V62.3742ZM90 63.0417C90 77.393 78.2625 89 63.75 89C49.2375 89 37.5 77.393 37.5 63.0417C37.5 61.7809 37.6125 60.5571 37.8 59.3334H7.5V14.8334H75V39.605C83.85 43.7955 90 52.6955 90 63.0417ZM40.05 51.9167C40.725 50.5817 41.4375 49.3209 42.3 48.0971C41.9625 48.2084 41.625 48.2084 41.25 48.2084C35.025 48.2084 30 43.2392 30 37.0834C30 30.9275 35.025 25.9584 41.25 25.9584C47.475 25.9584 52.5 30.9275 52.5 37.0834C52.5 38.0105 52.35 38.9375 52.125 39.7905C55.65 38.0846 59.5875 37.0834 63.75 37.0834C65.025 37.0834 66.2625 37.1946 67.5 37.38V29.6667C65.5109 29.6667 63.6032 28.8853 62.1967 27.4944C60.7902 26.1035 60 24.2171 60 22.25H22.5C22.5 26.3663 19.1625 29.6667 15 29.6667V44.5C16.9891 44.5 18.8968 45.2814 20.3033 46.6723C21.7098 48.0632 22.5 49.9497 22.5 51.9167H40.05ZM82.5 63.0417C82.5 52.8067 74.1 44.5 63.75 44.5C53.4 44.5 45 52.8067 45 63.0417C45 73.2767 53.4 81.5834 63.75 81.5834C74.1 81.5834 82.5 73.2767 82.5 63.0417Z" fill="white"/>
</g>
</svg>
