<svg width="74" height="74" viewBox="0 0 74 74" fill="none" xmlns="http://www.w3.org/2000/svg">
<g id="teenyicons:car-outline">
<path id="Vector" d="M71.6667 33.5992H74V32.8508L73.6687 32.21L71.6667 33.5992ZM6.33333 33.5992L4.33133 32.21L4 32.8615V33.6046L6.33333 33.5992ZM20.3333 60.5385V57.8462H18V60.5385H20.3333ZM57.6667 60.5385H60V57.8462H57.6667V60.5385ZM69.3333 33.5992V65.9231H74V33.5992H69.3333ZM8.33533 34.9831L18.2567 15.9215L14.2527 13.1431L4.33133 32.21L8.33533 34.9831ZM28.2573 9.38462H49.7427V4H28.2573V9.38462ZM59.7433 15.9162L69.6647 34.9831L73.6687 32.21L63.7473 13.1431L59.7433 15.9162ZM15.6667 68.6154H11V74H15.6667V68.6154ZM18 60.5385V65.9231H22.6667V60.5385H18ZM67 68.6154H62.3333V74H67V68.6154ZM60 65.9231V60.5385H55.3333V65.9231H60ZM57.6667 57.8462H20.3333V63.2308H57.6667V57.8462ZM8.66667 65.9231V33.5992L4 33.6046V65.9231H8.66667ZM62.3333 68.6154C61.7145 68.6154 61.121 68.3317 60.6834 67.8268C60.2458 67.3219 60 66.6371 60 65.9231H55.3333C55.3333 68.0652 56.0708 70.1196 57.3836 71.6343C58.6963 73.149 60.4768 74 62.3333 74V68.6154ZM15.6667 74C17.5232 74 19.3037 73.149 20.6164 71.6343C21.9292 70.1196 22.6667 68.0652 22.6667 65.9231H18C18 66.6371 17.7542 67.3219 17.3166 67.8268C16.879 68.3317 16.2855 68.6154 15.6667 68.6154V74ZM11 68.6154C10.3812 68.6154 9.78767 68.3317 9.35008 67.8268C8.9125 67.3219 8.66667 66.6371 8.66667 65.9231H4C4 68.0652 4.7375 70.1196 6.05025 71.6343C7.36301 73.149 9.14348 74 11 74V68.6154ZM49.7427 9.38462C51.7564 9.38487 53.7358 9.98655 55.4883 11.1311C57.2408 12.2757 58.7067 13.9242 59.7433 15.9162L63.7473 13.1431C62.2955 10.3538 60.2427 8.0458 57.7885 6.44357C55.3343 4.84134 52.5625 3.9995 49.7427 4V9.38462ZM18.2567 15.9215C19.2933 13.9295 20.7592 12.2757 22.5117 11.1311C24.2642 9.98655 26.2436 9.38487 28.2573 9.38462V4C25.4383 4.00043 22.6674 4.84271 20.2141 6.44489C17.7609 8.04708 15.704 10.3546 14.2527 13.1431L18.2567 15.9215ZM69.3333 65.9231C69.3333 66.6371 69.0875 67.3219 68.6499 67.8268C68.2123 68.3317 67.6188 68.6154 67 68.6154V74C68.8565 74 70.637 73.149 71.9497 71.6343C73.2625 70.1196 74 68.0652 74 65.9231H69.3333ZM13.3333 52.4615H27.3333V47.0769H13.3333V52.4615ZM64.6667 47.0769H50.6667V52.4615H64.6667V47.0769ZM18 36.3077H60V30.9231H18V36.3077Z" fill="white"/>
</g>
</svg>
