<svg width="78" height="78" viewBox="0 0 78 78" fill="none" xmlns="http://www.w3.org/2000/svg">
<g id="mingcute:time-line" clip-path="url(#clip0_1_2143)">
<g id="Group">
<path id="Vector" d="M39 6.5C56.9497 6.5 71.5 21.0503 71.5 39C71.5 56.9497 56.9497 71.5 39 71.5C21.0503 71.5 6.5 56.9497 6.5 39C6.5 21.0503 21.0503 6.5 39 6.5ZM39 13C32.1044 13 25.4912 15.7393 20.6152 20.6152C15.7393 25.4912 13 32.1044 13 39C13 45.8956 15.7393 52.5088 20.6152 57.3848C25.4912 62.2607 32.1044 65 39 65C45.8956 65 52.5088 62.2607 57.3848 57.3848C62.2607 52.5088 65 45.8956 65 39C65 32.1044 62.2607 25.4912 57.3848 20.6152C52.5088 15.7393 45.8956 13 39 13ZM39 19.5C39.796 19.5001 40.5643 19.7924 41.1592 20.3213C41.7541 20.8503 42.1341 21.5792 42.2272 22.3698L42.25 22.75V37.6545L51.0477 46.4523C51.6306 47.0371 51.969 47.8219 51.9942 48.6472C52.0194 49.4726 51.7296 50.2766 51.1834 50.8959C50.6373 51.5152 49.876 51.9035 49.054 51.9818C48.232 52.0601 47.411 51.8226 46.7578 51.3175L46.4523 51.0477L36.7023 41.2977C36.1971 40.7922 35.8727 40.1343 35.7792 39.4257L35.75 39V22.75C35.75 21.888 36.0924 21.0614 36.7019 20.4519C37.3114 19.8424 38.138 19.5 39 19.5Z" fill="white"/>
</g>
</g>
<defs>
<clipPath id="clip0_1_2143">
<rect width="78" height="78" fill="white"/>
</clipPath>
</defs>
</svg>
