<svg width="87" height="69" viewBox="0 0 87 69" fill="none" xmlns="http://www.w3.org/2000/svg">
<path id="Vector" d="M73.4765 2.59375C74.9799 1.18716 76.9805 0.409534 79.0562 0.424969C81.132 0.440404 83.1204 1.24769 84.6019 2.67648C86.0835 4.10527 86.9423 6.04381 86.9972 8.08304C87.0521 10.1223 86.2987 12.1027 84.896 13.6064L42.313 65.9429C41.5808 66.718 40.6971 67.34 39.7146 67.7717C38.7322 68.2035 37.6713 68.4361 36.5953 68.4557C35.5193 68.4753 34.4503 68.2814 33.4523 67.8857C32.4543 67.49 31.5477 66.9006 30.7868 66.1527L2.5476 38.4007C1.76118 37.6806 1.13042 36.8121 0.692933 35.8472C0.25545 34.8823 0.0202083 33.8407 0.00124568 32.7845C-0.0177169 31.7283 0.179988 30.6791 0.582563 29.6997C0.985138 28.7202 1.58434 27.8304 2.34441 27.0835C3.10449 26.3365 4.00987 25.7476 5.00655 25.352C6.00323 24.9564 7.07078 24.7621 8.14552 24.7807C9.22027 24.7994 10.2802 25.0305 11.262 25.4605C12.2439 25.8904 13.1276 26.5103 13.8604 27.2831L36.2084 49.2351L73.2737 2.82449C73.3405 2.74374 73.4011 2.66671 73.4765 2.59375Z" fill="white"/>
</svg>
