<svg width="108" height="81" viewBox="0 0 108 81" fill="none" xmlns="http://www.w3.org/2000/svg">
<g id="Group">
<path id="Vector" d="M19.7891 66.2529C19.7891 68.9901 20.8981 71.6152 22.8721 73.5507C24.8462 75.4862 27.5236 76.5736 30.3154 76.5736C33.1071 76.5736 35.7845 75.4862 37.7586 73.5507C39.7327 71.6152 40.8417 68.9901 40.8417 66.2529C40.8417 63.5157 39.7327 60.8906 37.7586 58.9551C35.7845 57.0195 33.1071 55.9322 30.3154 55.9322C27.5236 55.9322 24.8462 57.0195 22.8721 58.9551C20.8981 60.8906 19.7891 63.5157 19.7891 66.2529ZM72.4206 66.2529C72.4206 68.9901 73.5297 71.6152 75.5037 73.5507C77.4778 75.4862 80.1552 76.5736 82.947 76.5736C85.7387 76.5736 88.4161 75.4862 90.3902 73.5507C92.3642 71.6152 93.4733 68.9901 93.4733 66.2529C93.4733 63.5157 92.3642 60.8906 90.3902 58.9551C88.4161 57.0195 85.7387 55.9322 82.947 55.9322C80.1552 55.9322 77.4778 57.0195 75.5037 58.9551C73.5297 60.8906 72.4206 63.5157 72.4206 66.2529Z" stroke="white" stroke-width="8" stroke-linecap="round" stroke-linejoin="round"/>
<path id="Vector_2" d="M19.7895 66.253H9.26316V45.6117M4 4.32892H61.8947V66.253M40.8421 66.253H72.4211M93.4737 66.253H104V35.291M104 35.291H61.8947M104 35.291L88.2105 9.48926H61.8947M9.26316 24.9703H30.3158" stroke="white" stroke-width="8" stroke-linecap="round" stroke-linejoin="round"/>
</g>
</svg>
