<svg width="44" height="80" viewBox="0 0 44 80" fill="none" xmlns="http://www.w3.org/2000/svg">
<path id="Vector" d="M23.32 35.1111C13.332 32.4889 10.12 29.7778 10.12 25.5556C10.12 20.7111 14.564 17.3333 22 17.3333C28.248 17.3333 31.372 19.7333 32.516 23.5556C33.044 25.3333 34.496 26.6667 36.344 26.6667H37.664C40.568 26.6667 42.636 23.7778 41.624 21.0222C39.776 15.7778 35.464 11.4222 28.6 9.73333V6.66667C28.6 2.97778 25.652 0 22 0C18.348 0 15.4 2.97778 15.4 6.66667V9.6C6.864 11.4667 0 17.0667 0 25.6444C0 35.9111 8.404 41.0222 20.68 44C31.68 46.6667 33.88 50.5778 33.88 54.7111C33.88 57.7778 31.724 62.6667 22 62.6667C14.74 62.6667 11 60.0444 9.548 56.3111C8.888 54.5778 7.392 53.3333 5.588 53.3333H4.356C1.408 53.3333 -0.66 56.3556 0.44 59.1111C2.948 65.2889 8.8 68.9333 15.4 70.3556V73.3333C15.4 77.0222 18.348 80 22 80C25.652 80 28.6 77.0222 28.6 73.3333V70.4445C37.18 68.8 44 63.7778 44 54.6667C44 42.0444 33.308 37.7333 23.32 35.1111Z" fill="white"/>
</svg>
