<svg width="94" height="81" viewBox="0 0 94 81" fill="none" xmlns="http://www.w3.org/2000/svg">
<path id="Vector" d="M86.95 42.8761C84.9917 42.8761 83.3263 42.1887 81.9539 40.814C80.5815 39.4392 79.8969 37.7725 79.9 35.814V7.56527C79.9 5.60355 80.5862 3.93531 81.9586 2.56054C83.331 1.18577 84.9948 0.499954 86.95 0.503093C88.9083 0.503093 90.5737 1.19048 91.9461 2.56525C93.3185 3.94002 94.0031 5.60669 94 7.56527V35.814C94 37.7757 93.3138 39.4439 91.9414 40.8187C90.569 42.1935 88.9052 42.8793 86.95 42.8761ZM37.6 42.8761C32.43 42.8761 28.0042 41.0321 24.3225 37.3441C20.6408 33.6561 18.8 29.2226 18.8 24.0437C18.8 18.8647 20.6408 14.4313 24.3225 10.7432C28.0042 7.05522 32.43 5.21121 37.6 5.21121C42.77 5.21121 47.1958 7.05522 50.8775 10.7432C54.5592 14.4313 56.4 18.8647 56.4 24.0437C56.4 29.2226 54.5592 33.6561 50.8775 37.3441C47.1958 41.0321 42.77 42.8761 37.6 42.8761ZM0 80.5411V67.3583C0 64.6904 0.665833 62.2375 1.9975 59.9995C3.32917 57.7616 5.17 56.0557 7.52 54.8818C12.22 52.5278 17.0955 50.723 22.1464 49.4675C27.1973 48.212 32.3485 47.5842 37.6 47.5842C42.8483 47.5842 47.9995 48.212 53.0536 49.4675C58.1077 50.723 62.9831 52.5278 67.68 54.8818C70.03 56.0589 71.8708 57.7663 73.2025 60.0043C74.5342 62.2422 75.2 64.6935 75.2 67.3583V80.5411H0ZM9.4 71.1248H65.8V67.3583C65.8 66.4952 65.6042 65.7105 65.2125 65.0043C64.8208 64.2981 64.2333 63.7488 63.45 63.3564C59.455 61.3163 55.283 59.7469 50.9339 58.6483C46.5848 57.5498 42.1402 57.0005 37.6 57.0005C33.0567 57.0005 28.6105 57.5498 24.2614 58.6483C19.9123 59.7469 15.7419 61.3163 11.75 63.3564C10.9667 63.7488 10.3792 64.2981 9.9875 65.0043C9.59583 65.7105 9.4 66.4952 9.4 67.3583V71.1248ZM37.6 33.4599C40.185 33.4599 42.3987 32.5371 44.2411 30.6915C46.0835 28.8459 47.0031 26.63 47 24.0437C47 21.4542 46.0788 19.2367 44.2364 17.3911C42.394 15.5455 40.1819 14.6243 37.6 14.6274C35.015 14.6274 32.8013 15.5502 30.9589 17.3958C29.1165 19.2414 28.1969 21.4573 28.2 24.0437C28.2 26.6331 29.1212 28.8507 30.9636 30.6962C32.806 32.5418 35.0181 33.463 37.6 33.4599Z" fill="white"/>
</svg>
