<svg width="68" height="68" viewBox="0 0 68 68" fill="none" xmlns="http://www.w3.org/2000/svg">
<rect x="67" y="67" width="66" height="66" rx="33" transform="rotate(-180 67 67)" stroke="white" stroke-width="2"/>
<path d="M35.4202 45.4199L45.4202 35.4199C45.6023 35.2297 45.745 35.0054 45.8402 34.7599C46.0402 34.273 46.0402 33.7268 45.8402 33.2399C45.745 32.9944 45.6023 32.7701 45.4202 32.5799L35.4202 22.5799C35.2337 22.3934 35.0124 22.2455 34.7687 22.1446C34.5251 22.0436 34.2639 21.9917 34.0002 21.9917C33.4676 21.9917 32.9568 22.2033 32.5802 22.5799C32.2036 22.9565 31.992 23.4673 31.992 23.9999C31.992 24.5325 32.2036 25.0433 32.5802 25.4199L39.1802 31.9999L24.0002 31.9999C23.4698 31.9999 22.9611 32.2106 22.586 32.5857C22.2109 32.9607 22.0002 33.4694 22.0002 33.9999C22.0002 34.5303 22.2109 35.039 22.586 35.4141C22.9611 35.7892 23.4698 35.9999 24.0002 35.9999H39.1802L32.5802 42.5799C32.3927 42.7658 32.244 42.987 32.1424 43.2307C32.0409 43.4744 31.9886 43.7359 31.9886 43.9999C31.9886 44.2639 32.0409 44.5253 32.1424 44.769C32.244 45.0128 32.3927 45.234 32.5802 45.4199C32.7661 45.6073 32.9873 45.7561 33.2311 45.8577C33.4748 45.9592 33.7362 46.0115 34.0002 46.0115C34.2642 46.0115 34.5256 45.9592 34.7694 45.8577C35.0131 45.7561 35.2343 45.6073 35.4202 45.4199Z" fill="white"/>
</svg>
