<svg width="19" height="15" viewBox="0 0 19 15" fill="none" xmlns="http://www.w3.org/2000/svg">
<path id="Vector" d="M18.1097 6.11111H7.25257C7.03661 6.11111 6.82949 6.02331 6.67679 5.86703C6.52408 5.71075 6.43829 5.49879 6.43829 5.27778C6.43829 5.05676 6.52408 4.8448 6.67679 4.68852C6.82949 4.53224 7.03661 4.44444 7.25257 4.44444H18.1097C18.3257 4.44444 18.5328 4.53224 18.6855 4.68852C18.8382 4.8448 18.924 5.05676 18.924 5.27778C18.924 5.49879 18.8382 5.71075 18.6855 5.86703C18.5328 6.02331 18.3257 6.11111 18.1097 6.11111ZM18.1857 1.66667H0.814286C0.598324 1.66667 0.391207 1.57887 0.238499 1.42259C0.0857907 1.26631 0 1.05435 0 0.833333C0 0.61232 0.0857907 0.400358 0.238499 0.244078C0.391207 0.0877973 0.598324 0 0.814286 0H18.1857C18.4017 0 18.6088 0.0877973 18.7615 0.244078C18.9142 0.400358 19 0.61232 19 0.833333C19 1.05435 18.9142 1.26631 18.7615 1.42259C18.6088 1.57887 18.4017 1.66667 18.1857 1.66667ZM18.1857 10.5556H0.814286C0.598324 10.5556 0.391207 10.4678 0.238499 10.3115C0.0857907 10.1552 0 9.94324 0 9.72222C0 9.50121 0.0857907 9.28925 0.238499 9.13297C0.391207 8.97669 0.598324 8.88889 0.814286 8.88889H18.1857C18.4017 8.88889 18.6088 8.97669 18.7615 9.13297C18.9142 9.28925 19 9.50121 19 9.72222C19 9.94324 18.9142 10.1552 18.7615 10.3115C18.6088 10.4678 18.4017 10.5556 18.1857 10.5556ZM18.1097 15H7.25257C7.03661 15 6.82949 14.9122 6.67679 14.7559C6.52408 14.5996 6.43829 14.3877 6.43829 14.1667C6.43829 13.9457 6.52408 13.7337 6.67679 13.5774C6.82949 13.4211 7.03661 13.3333 7.25257 13.3333H18.1097C18.3257 13.3333 18.5328 13.4211 18.6855 13.5774C18.8382 13.7337 18.924 13.9457 18.924 14.1667C18.924 14.3877 18.8382 14.5996 18.6855 14.7559C18.5328 14.9122 18.3257 15 18.1097 15Z" fill="white"/>
</svg>
