<svg width="27" height="27" viewBox="0 0 27 27" fill="none" xmlns="http://www.w3.org/2000/svg">
<path id="Vector" d="M14.8878 0.00166098C15.8729 -0.00211919 16.858 0.00778152 17.8428 0.0313601L18.1047 0.0408097C18.4071 0.0516093 18.7054 0.0651088 19.0658 0.0813083C20.5022 0.148806 21.4822 0.375598 22.3421 0.709037C23.2331 1.05193 23.9837 1.51631 24.7342 2.26688C25.4205 2.94133 25.9516 3.75716 26.2907 4.65765C26.6241 5.51757 26.8509 6.49899 26.9184 7.93534C26.9346 8.29443 26.9481 8.59412 26.9589 8.89651L26.967 9.1584C26.991 10.1428 27.0013 11.1274 26.998 12.1121L26.9994 13.1192V14.8876C27.0027 15.8727 26.9924 16.8578 26.9683 17.8427L26.9602 18.1045C26.9494 18.4069 26.9359 18.7053 26.9198 19.0657C26.8523 20.5021 26.6228 21.4821 26.2907 22.342C25.9527 23.2435 25.4215 24.06 24.7342 24.7342C24.0592 25.4204 23.243 25.9515 22.3421 26.2907C21.4822 26.6241 20.5022 26.8509 19.0658 26.9184C18.7054 26.9346 18.4071 26.9481 18.1047 26.9589L17.8428 26.967C16.858 26.991 15.8729 27.0013 14.8878 26.998L13.8808 26.9994H12.1137C11.1286 27.0027 10.1435 26.9924 9.15871 26.9683L8.89682 26.9602C8.57636 26.9486 8.25597 26.9351 7.93567 26.9197C6.49935 26.8522 5.5193 26.6228 4.65804 26.2907C3.75721 25.9523 2.94125 25.4211 2.26731 24.7342C1.58026 24.0596 1.04863 23.2432 0.709493 22.342C0.37606 21.4821 0.149271 20.5021 0.0817747 19.0657C0.0667404 18.7454 0.053241 18.425 0.0412768 18.1045L0.0345273 17.8427C0.00963943 16.8578 -0.00161121 15.8727 0.000778911 14.8876V12.1121C-0.0029887 11.1274 0.00691185 10.1428 0.0304775 9.1584L0.039927 8.89651C0.0507264 8.59412 0.0642257 8.29443 0.0804248 7.93534C0.147921 6.49764 0.37471 5.51892 0.708143 4.65765C1.04748 3.75672 1.58015 2.94111 2.26866 2.26823C2.94214 1.58077 3.75758 1.04865 4.65804 0.709037C5.5193 0.375598 6.498 0.148806 7.93567 0.0813083L8.89682 0.0408097L9.15871 0.0340601C10.1431 0.00918425 11.1277 -0.00206658 12.1124 0.000311121L14.8878 0.00166098ZM13.5001 6.75143C12.6058 6.73878 11.7178 6.90401 10.8879 7.23751C10.058 7.571 9.30268 8.06612 8.66578 8.69409C8.02888 9.32205 7.52313 10.0703 7.17794 10.8955C6.83274 11.7206 6.65498 12.6061 6.65498 13.5005C6.65498 14.395 6.83274 15.2805 7.17794 16.1056C7.52313 16.9307 8.02888 17.679 8.66578 18.307C9.30268 18.9349 10.058 19.43 10.8879 19.7635C11.7178 20.097 12.6058 20.2623 13.5001 20.2496C15.2902 20.2496 17.007 19.5385 18.2728 18.2727C19.5386 17.0068 20.2497 15.29 20.2497 13.4999C20.2497 11.7097 19.5386 9.99287 18.2728 8.72704C17.007 7.46122 15.2902 6.75143 13.5001 6.75143ZM13.5001 9.45134C14.038 9.44143 14.5726 9.53881 15.0725 9.73781C15.5724 9.93681 16.0276 10.2334 16.4116 10.6103C16.7956 10.9872 17.1006 11.4369 17.3088 11.933C17.5171 12.4291 17.6244 12.9618 17.6245 13.4998C17.6246 14.0379 17.5174 14.5706 17.3094 15.0668C17.1013 15.563 16.7964 16.0127 16.4126 16.3897C16.0287 16.7668 15.5736 17.0636 15.0737 17.2627C14.5739 17.4619 14.0394 17.5594 13.5014 17.5497C12.4274 17.5497 11.3973 17.123 10.6378 16.3635C9.87832 15.604 9.45164 14.5739 9.45164 13.4999C9.45164 12.4258 9.87832 11.3957 10.6378 10.6362C11.3973 9.87667 12.4274 9.44999 13.5014 9.44999L13.5001 9.45134ZM20.5872 4.7265C20.1517 4.74393 19.7399 4.9292 19.4379 5.24349C19.1359 5.55779 18.9673 5.97674 18.9673 6.41259C18.9673 6.84845 19.1359 7.26739 19.4379 7.58169C19.7399 7.89599 20.1517 8.08125 20.5872 8.09869C21.0348 8.09869 21.464 7.9209 21.7804 7.60444C22.0969 7.28799 22.2746 6.85878 22.2746 6.41124C22.2746 5.96371 22.0969 5.5345 21.7804 5.21804C21.464 4.90158 21.0348 4.7238 20.5872 4.7238V4.7265Z" fill="white"/>
</svg>
