<svg width="301" height="38" viewBox="0 0 301 38" fill="none" xmlns="http://www.w3.org/2000/svg">
<path d="M17.6782 36.5945C19.654 36.5945 21.5778 36.0566 23.4496 34.9808C25.356 33.8703 26.8985 32.3781 28.0771 30.5041H29.273C27.7478 32.7598 25.9106 34.547 23.7615 35.8658C21.6471 37.1845 19.2207 37.8438 16.4823 37.8438C14.1945 37.8438 12.0454 37.358 10.035 36.3863C8.05916 35.3799 6.32601 34.0265 4.8355 32.326C3.34499 30.5909 2.16644 28.5781 1.29987 26.2877C0.433288 23.9626 0 21.4986 0 18.8959C0 16.2932 0.433288 13.8466 1.29987 11.5562C2.16644 9.26575 3.34499 7.27032 4.8355 5.56986C6.32601 3.8347 8.05916 2.48128 10.035 1.50959C12.0454 0.503196 14.1945 0 16.4823 0C17.4875 0 18.5101 0.138813 19.55 0.416439C20.6245 0.659361 21.6644 1.00639 22.6696 1.45753C23.7095 1.90868 24.6801 2.42922 25.5813 3.01918C26.5172 3.60913 27.3492 4.23379 28.0771 4.89315V12.1808H26.8292V10.7233C26.8292 9.68219 26.6732 8.6758 26.3613 7.70411C26.0493 6.73242 25.616 5.84749 25.0614 5.04931C24.5068 4.21644 23.8135 3.50502 22.9816 2.91507C22.1844 2.29041 21.3005 1.83927 20.3299 1.56165C19.8793 1.45754 19.446 1.37078 19.03 1.30137C18.6141 1.23196 18.1634 1.19726 17.6782 1.19726C15.9103 1.19726 14.2465 1.66575 12.6867 2.60274C11.1268 3.50502 9.77499 4.77169 8.6311 6.40274C7.48722 7.99909 6.56865 9.87306 5.87539 12.0247C5.21679 14.1763 4.88749 16.4667 4.88749 18.8959C4.88749 21.3598 5.21679 23.6676 5.87539 25.8192C6.56865 27.9361 7.48722 29.81 8.6311 31.4411C9.77499 33.0374 11.1268 34.3041 12.6867 35.2411C14.2465 36.1434 15.9103 36.5945 17.6782 36.5945Z" fill="white"/>
<path d="M36.267 37.8438H31.3796V0H36.267V37.8438Z" fill="white"/>
<path d="M68.1166 0.156165V1.35343H55.9498V38H51.0624V1.35343H38.8436V0.156165H68.1166Z" fill="white"/>
<path d="M99.7163 0.156165L98.8844 1.35343L87.6536 18.4274V38H82.7661V18.4274L70.4953 1.35343L69.7154 0.156165H75.5908L76.4747 1.35343L87.2376 16.6055L97.3765 1.35343L98.2605 0.156165H99.7163Z" fill="white"/>
<path d="M156.648 0V37.8438H151.761V3.8L142.298 24.4137L141.726 25.611L139.542 30.4L132.939 15.8247L127.375 3.48767V37.8438H126.128V0H131.067L141.622 22.9041L152.125 0H156.648Z" fill="white"/>
<path d="M177.652 0.156165C180.251 0.156165 182.695 0.659362 184.983 1.66575C187.305 2.63744 189.316 3.97352 191.014 5.67397C192.713 7.37443 194.047 9.38721 195.018 11.7123C196.023 14.0027 196.526 16.4493 196.526 19.0521C196.526 21.6548 196.023 24.1187 195.018 26.4438C194.047 28.7342 192.713 30.747 191.014 32.4822C189.316 34.1827 187.305 35.5361 184.983 36.5425C182.695 37.5142 180.251 38 177.652 38C175.052 38 172.591 37.5142 170.269 36.5425C167.981 35.5361 165.97 34.1827 164.237 32.4822C162.539 30.747 161.187 28.7342 160.182 26.4438C159.211 24.1187 158.726 21.6548 158.726 19.0521C158.726 16.4493 159.211 14.0027 160.182 11.7123C161.187 9.38721 162.539 7.37443 164.237 5.67397C165.97 3.97352 167.981 2.63744 170.269 1.66575C172.591 0.659362 175.052 0.156165 177.652 0.156165ZM177.652 36.7507C179.593 36.7507 181.413 36.2995 183.111 35.3973C184.81 34.4603 186.3 33.1936 187.583 31.5973C188.865 29.9662 189.87 28.0922 190.598 25.9753C191.326 23.8237 191.69 21.516 191.69 19.0521C191.69 16.6228 191.326 14.3324 190.598 12.1808C189.87 10.0292 188.865 8.15525 187.583 6.5589C186.3 4.92785 184.81 3.66119 183.111 2.75891C181.413 1.82192 179.593 1.35343 177.652 1.35343C175.711 1.35343 173.891 1.82192 172.192 2.75891C170.494 3.66119 169.003 4.92785 167.721 6.5589C166.438 8.15525 165.433 10.0292 164.705 12.1808C163.977 14.3324 163.613 16.6228 163.613 19.0521C163.613 21.516 163.977 23.8237 164.705 25.9753C165.433 28.0922 166.438 29.9662 167.721 31.5973C169.003 33.1936 170.494 34.4603 172.192 35.3973C173.891 36.2995 175.711 36.7507 177.652 36.7507Z" fill="white"/>
<path d="M219.531 0.156165V1.35343H207.364V38H202.476V1.35343H190.258V0.156165H219.531Z" fill="white"/>
<path d="M232.744 0.156165C235.343 0.156165 237.787 0.659362 240.075 1.66575C242.397 2.63744 244.408 3.97352 246.106 5.67397C247.805 7.37443 249.139 9.38721 250.11 11.7123C251.115 14.0027 251.618 16.4493 251.618 19.0521C251.618 21.6548 251.115 24.1187 250.11 26.4438C249.139 28.7342 247.805 30.747 246.106 32.4822C244.408 34.1827 242.397 35.5361 240.075 36.5425C237.787 37.5142 235.343 38 232.744 38C230.144 38 227.683 37.5142 225.36 36.5425C223.073 35.5361 221.062 34.1827 219.329 32.4822C217.631 30.747 216.279 28.7342 215.273 26.4438C214.303 24.1187 213.818 21.6548 213.818 19.0521C213.818 16.4493 214.303 14.0027 215.273 11.7123C216.279 9.38721 217.631 7.37443 219.329 5.67397C221.062 3.97352 223.073 2.63744 225.36 1.66575C227.683 0.659362 230.144 0.156165 232.744 0.156165ZM232.744 36.7507C234.685 36.7507 236.505 36.2995 238.203 35.3973C239.902 34.4603 241.392 33.1936 242.675 31.5973C243.957 29.9662 244.962 28.0922 245.69 25.9753C246.418 23.8237 246.782 21.516 246.782 19.0521C246.782 16.6228 246.418 14.3324 245.69 12.1808C244.962 10.0292 243.957 8.15525 242.675 6.5589C241.392 4.92785 239.902 3.66119 238.203 2.75891C236.505 1.82192 234.685 1.35343 232.744 1.35343C230.803 1.35343 228.983 1.82192 227.284 2.75891C225.586 3.66119 224.095 4.92785 222.813 6.5589C221.53 8.15525 220.525 10.0292 219.797 12.1808C219.069 14.3324 218.705 16.6228 218.705 19.0521C218.705 21.516 219.069 23.8237 219.797 25.9753C220.525 28.0922 221.53 29.9662 222.813 31.5973C224.095 33.1936 225.586 34.4603 227.284 35.3973C228.983 36.2995 230.803 36.7507 232.744 36.7507Z" fill="white"/>
<path d="M279.414 38H273.643L269.067 30.7644L264.388 23.3206H258.564V38H253.677V0.156165H265.272C266.866 0.156165 268.357 0.468494 269.743 1.09315C271.164 1.68311 272.395 2.49863 273.435 3.53973C274.509 4.58082 275.341 5.81278 275.93 7.23562C276.554 8.62374 276.866 10.116 276.866 11.7123C276.866 14.1763 276.19 16.3799 274.839 18.3233C273.487 20.232 271.754 21.6201 269.639 22.4877L278.634 36.7507L279.414 38ZM263.244 22.1233C264.457 22.1233 265.584 21.8977 266.623 21.4466C267.698 20.9954 268.634 20.3708 269.431 19.5726C270.228 18.7744 270.852 17.8548 271.303 16.8137C271.754 15.7379 271.979 14.5927 271.979 13.3781V10.0986C271.979 8.88402 271.754 7.75617 271.303 6.71507C270.852 5.63927 270.228 4.70228 269.431 3.90411C268.634 3.10594 267.698 2.48128 266.623 2.03014C265.584 1.579 264.457 1.35343 263.244 1.35343H258.564V22.1233H263.244Z" fill="white"/>
<path d="M293.669 17.2301C294.882 17.8548 295.939 18.4968 296.84 19.1562C297.776 19.7808 298.539 20.5096 299.128 21.3425C299.752 22.1753 300.22 23.147 300.532 24.2575C300.844 25.368 301 26.6868 301 28.2137C301 29.4283 300.775 30.6256 300.324 31.8055C299.873 32.9854 299.232 34.0438 298.4 34.9808C297.568 35.8831 296.546 36.6119 295.333 37.1671C294.119 37.7224 292.75 38 291.225 38C290.601 38 289.856 37.9827 288.989 37.9479C288.123 37.9479 287.239 37.8785 286.338 37.7397C285.436 37.5662 284.552 37.3233 283.686 37.011C282.819 36.6639 282.091 36.1781 281.502 35.5534V28.2137H282.698C282.698 29.2548 282.889 30.2959 283.27 31.337C283.686 32.3434 284.223 33.2457 284.882 34.0438C285.575 34.842 286.372 35.5014 287.273 36.0219C288.209 36.5078 289.197 36.7507 290.237 36.7507H291.277C292.109 36.7507 292.889 36.5425 293.617 36.126C294.379 35.7096 295.021 35.1717 295.541 34.5123C296.095 33.8183 296.528 33.0374 296.84 32.1699C297.187 31.2676 297.36 30.3653 297.36 29.463C297.36 27.589 296.754 25.9927 295.541 24.674C294.327 23.3553 292.49 22.0886 290.029 20.874C288.816 20.2493 287.741 19.6247 286.805 19C285.904 18.3406 285.142 17.5945 284.518 16.7616C283.928 15.9288 283.478 14.9571 283.166 13.8466C282.854 12.7361 282.698 11.4174 282.698 9.89041C282.698 8.7105 282.906 7.54795 283.322 6.40274C283.772 5.25754 284.362 4.23379 285.09 3.33151C285.852 2.39452 286.736 1.63105 287.741 1.0411C288.781 0.451143 289.89 0.156165 291.069 0.156165C291.52 0.156165 292.109 0.173517 292.837 0.20822C293.565 0.20822 294.327 0.294977 295.125 0.468493C295.957 0.607306 296.771 0.850229 297.568 1.19726C298.4 1.50959 299.128 1.96073 299.752 2.55069V9.89041H298.556C298.556 8.6758 298.4 7.54795 298.088 6.50685C297.776 5.46575 297.308 4.56347 296.684 3.8C296.095 3.03653 295.35 2.44658 294.449 2.03014C293.547 1.579 292.49 1.35343 291.277 1.35343C289.89 1.35343 288.712 1.90868 287.741 3.01918C286.805 4.12968 286.338 5.60457 286.338 7.44384C286.338 8.38082 286.372 9.2484 286.441 10.0466C286.511 10.81 286.771 11.5735 287.221 12.337C287.707 13.1005 288.435 13.8813 289.405 14.6795C290.41 15.4776 291.832 16.3279 293.669 17.2301Z" fill="white"/>
</svg>
