<svg width="228" height="240" viewBox="0 0 228 240" fill="none" xmlns="http://www.w3.org/2000/svg">
<g id="Group 28">
<path id="Ellipse 16" d="M90 28.3848C77.8603 28.3848 65.8461 30.8745 54.6803 35.7041C43.5145 40.5337 33.4279 47.6033 25.0275 56.4876C16.627 65.3719 10.0864 75.8872 5.79923 87.4007C1.51201 98.9143 -0.433192 111.188 0.0806627 123.484C0.594518 135.779 3.55681 147.842 8.78929 158.947C14.0218 170.051 21.4163 179.968 30.5278 188.1C39.6394 196.233 50.2797 202.412 61.8085 206.267C73.3372 210.122 85.5161 211.572 97.6123 210.532L96.9735 202.903C85.8924 203.856 74.7355 202.527 64.1742 198.996C53.6129 195.465 43.8655 189.804 35.5185 182.354C27.1715 174.904 20.3975 165.82 15.6041 155.647C10.8107 145.474 8.09703 134.423 7.6263 123.159C7.15557 111.896 8.93754 100.652 12.865 90.1046C16.7924 79.5572 22.7842 69.9243 30.4797 61.7855C38.1752 53.6468 47.4153 47.1704 57.6442 42.7461C67.873 38.3218 78.879 36.041 90 36.041L90 28.3848Z" fill="#E44D0C"/>
<path id="Ellipse 17" d="M138 210.859C150.14 210.859 162.154 208.369 173.32 203.539C184.486 198.71 194.572 191.64 202.973 182.756C211.373 173.871 217.914 163.356 222.201 151.843C226.488 140.329 228.433 128.055 227.919 115.76C227.405 103.464 224.443 91.4012 219.211 80.2965C213.978 69.1918 206.584 59.275 197.472 51.1429C188.361 43.0107 177.72 36.8312 166.192 32.9764C154.663 29.1215 142.484 27.6708 130.388 28.7117L131.029 36.3678C142.106 35.4146 153.26 36.7431 163.817 40.2733C174.375 43.8036 184.119 49.4626 192.464 56.9099C200.808 64.3572 207.58 73.4389 212.371 83.6083C217.163 93.7778 219.876 104.825 220.347 116.085C220.817 127.345 219.036 138.585 215.11 149.129C211.184 159.673 205.194 169.303 197.501 177.439C189.808 185.575 180.571 192.049 170.345 196.472C160.12 200.895 149.117 203.175 138 203.175L138 210.859Z" fill="#E44D0C"/>
<g id="Group 25">
<path id="Union" fill-rule="evenodd" clip-rule="evenodd" d="M131.908 209.169L169.492 239.436L173.224 234.673L139.897 207.835L165.899 174.23L161.178 170.476L131.554 208.762L131.968 209.092L131.908 209.169Z" fill="#E44D0C"/>
</g>
<g id="Group 27">
<path id="Union_2" fill-rule="evenodd" clip-rule="evenodd" d="M96.9381 30.8289L59.8009 0L55.9995 4.70595L88.9304 32.043L62.4387 65.2531L67.1042 69.0777L97.2862 31.2413L96.8764 30.9053L96.9381 30.8289Z" fill="#E44D0C"/>
</g>
</g>
</svg>
