<svg width="27" height="27" viewBox="0 0 27 27" fill="none" xmlns="http://www.w3.org/2000/svg">
<path id="Vector" d="M13.5 0C6.048 0 0 6.048 0 13.5C0 20.952 6.048 27 13.5 27C20.952 27 27 20.952 27 13.5C27 6.048 20.952 0 13.5 0ZM19.764 9.18C19.5615 11.313 18.684 16.497 18.2385 18.8865C18.0495 19.899 17.6715 20.2365 17.3205 20.277C16.5375 20.3445 15.9435 19.764 15.1875 19.2645C13.9995 18.4815 13.3245 17.9955 12.177 17.2395C10.8405 16.362 11.7045 15.876 12.474 15.093C12.6765 14.8905 16.1325 11.745 16.2 11.4615C16.2094 11.4186 16.2081 11.374 16.1964 11.3316C16.1846 11.2893 16.1627 11.2505 16.1325 11.2185C16.0515 11.151 15.9435 11.178 15.849 11.1915C15.7275 11.2185 13.8375 12.474 10.152 14.958C9.612 15.3225 9.126 15.5115 8.694 15.498C8.208 15.4845 7.29 15.228 6.6015 14.9985C5.751 14.7285 5.0895 14.58 5.1435 14.1075C5.1705 13.8645 5.508 13.6215 6.1425 13.365C10.0845 11.6505 12.7035 10.5165 14.013 9.9765C17.766 8.4105 18.5355 8.1405 19.0485 8.1405C19.1565 8.1405 19.413 8.1675 19.575 8.3025C19.71 8.4105 19.7505 8.559 19.764 8.667C19.7505 8.748 19.7775 8.991 19.764 9.18Z" fill="white"/>
</svg>
