<svg width="186" height="298" viewBox="0 0 186 298" fill="none" xmlns="http://www.w3.org/2000/svg">
<path d="M162 0L162 187.824" stroke="white"/>
<path d="M162.5 187.824L18.5 280.687" stroke="white"/>
<path d="M169 187.299C169 191.646 165.642 195.169 161.5 195.169C157.358 195.169 154 191.646 154 187.299C154 182.953 157.358 179.43 161.5 179.43C165.642 179.43 169 182.953 169 187.299Z" fill="white"/>
<path d="M25 284.884C25 292.128 19.4036 298 12.5 298C5.59644 298 0 292.128 0 284.884C0 277.64 5.59644 271.768 12.5 271.768C19.4036 271.768 25 277.64 25 284.884Z" fill="white"/>
<path d="M186 0L168.484 2.11944C165.177 2.51947 162.555 5.09582 162.097 8.39437C161.639 5.09652 159.016 2.52167 155.71 2.12502L138 0L162.097 0L186 0Z" fill="white"/>
</svg>
