<svg width="1723" height="1060" viewBox="0 0 1723 1060" fill="none" xmlns="http://www.w3.org/2000/svg">
<path d="M826 112L826 701.001" stroke="white" stroke-width="4"/>
<path d="M1352 550.667C1357.89 550.667 1362.67 545.891 1362.67 540C1362.67 534.109 1357.89 529.333 1352 529.333C1346.11 529.333 1341.33 534.109 1341.33 540C1341.33 545.891 1346.11 550.667 1352 550.667ZM133.93 874.421L134.317 876.383L133.93 874.421ZM1134.93 733.081L1136.26 734.575L1134.93 733.081ZM839.392 735.078L839.78 737.04L839.392 735.078ZM841.718 736.85H1130.28V732.85H841.718V736.85ZM1136.26 734.575L1353.33 541.494L1350.67 538.506L1133.6 731.586L1136.26 734.575ZM839.005 733.116L133.542 872.459L134.317 876.383L839.78 737.04L839.005 733.116ZM127.706 876.437L33.3155 1023.92L36.6845 1026.08L131.075 878.593L127.706 876.437ZM133.542 872.459C131.136 872.935 129.028 874.371 127.706 876.437L131.075 878.593C131.809 877.446 132.98 876.647 134.317 876.383L133.542 872.459ZM1130.28 736.85C1132.49 736.85 1134.62 736.041 1136.26 734.575L1133.6 731.586C1132.69 732.401 1131.51 732.85 1130.28 732.85V736.85ZM841.718 732.85C840.807 732.85 839.898 732.939 839.005 733.116L839.78 737.04C840.418 736.914 841.067 736.85 841.718 736.85V732.85Z" fill="white"/>
<path d="M888 0L830.375 0.321528C828.973 0.329349 827.581 0.558322 826.251 1C824.92 0.558323 823.529 0.329382 822.127 0.321626L764 0L826.251 0L888 0Z" fill="white"/>
<path d="M852 727.5C852 742.136 840.136 754 825.5 754C810.864 754 799 742.136 799 727.5C799 712.864 810.864 701 825.5 701C840.136 701 852 712.864 852 727.5Z" fill="white"/>
<path d="M71 1024.5C71 1044.11 55.1061 1060 35.5 1060C15.8939 1060 0 1044.11 0 1024.5C0 1004.89 15.8939 989 35.5 989C55.1061 989 71 1004.89 71 1024.5Z" fill="white"/>
<path d="M1142.36 354.2C1143.85 354.2 1145.14 354.448 1146.22 354.944C1147.33 355.44 1148.18 356.144 1148.77 357.056C1149.36 357.968 1149.66 359.048 1149.66 360.296C1149.66 361.528 1149.36 362.608 1148.77 363.536C1148.18 364.448 1147.33 365.152 1146.22 365.648C1145.14 366.128 1143.85 366.368 1142.36 366.368H1138.98V371H1135.09V354.2H1142.36ZM1142.14 363.2C1143.31 363.2 1144.2 362.952 1144.81 362.456C1145.42 361.944 1145.72 361.224 1145.72 360.296C1145.72 359.352 1145.42 358.632 1144.81 358.136C1144.2 357.624 1143.31 357.368 1142.14 357.368H1138.98V363.2H1142.14ZM1162.15 367.4H1154.35L1152.87 371H1148.88L1156.37 354.2H1160.21L1167.72 371H1163.64L1162.15 367.4ZM1160.93 364.448L1158.27 358.016L1155.6 364.448H1160.93ZM1177.06 371.288C1175.35 371.288 1173.79 370.92 1172.4 370.184C1171.03 369.432 1169.94 368.4 1169.14 367.088C1168.35 365.76 1167.96 364.264 1167.96 362.6C1167.96 360.936 1168.35 359.448 1169.14 358.136C1169.94 356.808 1171.03 355.776 1172.4 355.04C1173.79 354.288 1175.35 353.912 1177.08 353.912C1178.54 353.912 1179.85 354.168 1181.02 354.68C1182.2 355.192 1183.19 355.928 1183.99 356.888L1181.5 359.192C1180.36 357.88 1178.95 357.224 1177.27 357.224C1176.23 357.224 1175.31 357.456 1174.49 357.92C1173.67 358.368 1173.03 359 1172.57 359.816C1172.12 360.632 1171.9 361.56 1171.9 362.6C1171.9 363.64 1172.12 364.568 1172.57 365.384C1173.03 366.2 1173.67 366.84 1174.49 367.304C1175.31 367.752 1176.23 367.976 1177.27 367.976C1178.95 367.976 1180.36 367.312 1181.5 365.984L1183.99 368.288C1183.19 369.264 1182.2 370.008 1181.02 370.52C1179.83 371.032 1178.51 371.288 1177.06 371.288ZM1201.24 354.2V371H1197.38V357.368H1189.79V371H1185.93V354.2H1201.24ZM1212.82 371.288C1211.08 371.288 1209.5 370.912 1208.09 370.16C1206.7 369.408 1205.61 368.376 1204.81 367.064C1204.02 365.736 1203.63 364.248 1203.63 362.6C1203.63 360.952 1204.02 359.472 1204.81 358.16C1205.61 356.832 1206.7 355.792 1208.09 355.04C1209.5 354.288 1211.08 353.912 1212.82 353.912C1214.57 353.912 1216.13 354.288 1217.53 355.04C1218.92 355.792 1220.01 356.832 1220.81 358.16C1221.61 359.472 1222.01 360.952 1222.01 362.6C1222.01 364.248 1221.61 365.736 1220.81 367.064C1220.01 368.376 1218.92 369.408 1217.53 370.16C1216.13 370.912 1214.57 371.288 1212.82 371.288ZM1212.82 367.976C1213.81 367.976 1214.71 367.752 1215.51 367.304C1216.31 366.84 1216.93 366.2 1217.38 365.384C1217.85 364.568 1218.08 363.64 1218.08 362.6C1218.08 361.56 1217.85 360.632 1217.38 359.816C1216.93 359 1216.31 358.368 1215.51 357.92C1214.71 357.456 1213.81 357.224 1212.82 357.224C1211.83 357.224 1210.93 357.456 1210.13 357.92C1209.33 358.368 1208.7 359 1208.24 359.816C1207.79 360.632 1207.57 361.56 1207.57 362.6C1207.57 363.64 1207.79 364.568 1208.24 365.384C1208.7 366.2 1209.33 366.84 1210.13 367.304C1210.93 367.752 1211.83 367.976 1212.82 367.976ZM1238.92 354.2V371H1235.08V357.368H1229.32L1229.2 360.872C1229.12 363.256 1228.92 365.192 1228.62 366.68C1228.32 368.152 1227.8 369.288 1227.08 370.088C1226.38 370.872 1225.39 371.264 1224.11 371.264C1223.58 371.264 1222.94 371.176 1222.19 371L1222.43 367.712C1222.64 367.776 1222.87 367.808 1223.12 367.808C1224.05 367.808 1224.7 367.264 1225.07 366.176C1225.44 365.072 1225.67 363.352 1225.76 361.016L1226 354.2H1238.92ZM1250.53 371.288C1248.78 371.288 1247.21 370.912 1245.8 370.16C1244.41 369.408 1243.31 368.376 1242.51 367.064C1241.73 365.736 1241.34 364.248 1241.34 362.6C1241.34 360.952 1241.73 359.472 1242.51 358.16C1243.31 356.832 1244.41 355.792 1245.8 355.04C1247.21 354.288 1248.78 353.912 1250.53 353.912C1252.27 353.912 1253.84 354.288 1255.23 355.04C1256.62 355.792 1257.72 356.832 1258.52 358.16C1259.32 359.472 1259.72 360.952 1259.72 362.6C1259.72 364.248 1259.32 365.736 1258.52 367.064C1257.72 368.376 1256.62 369.408 1255.23 370.16C1253.84 370.912 1252.27 371.288 1250.53 371.288ZM1250.53 367.976C1251.52 367.976 1252.42 367.752 1253.22 367.304C1254.02 366.84 1254.64 366.2 1255.09 365.384C1255.55 364.568 1255.78 363.64 1255.78 362.6C1255.78 361.56 1255.55 360.632 1255.09 359.816C1254.64 359 1254.02 358.368 1253.22 357.92C1252.42 357.456 1251.52 357.224 1250.53 357.224C1249.54 357.224 1248.64 357.456 1247.84 357.92C1247.04 358.368 1246.41 359 1245.94 359.816C1245.5 360.632 1245.27 361.56 1245.27 362.6C1245.27 363.64 1245.5 364.568 1245.94 365.384C1246.41 366.2 1247.04 366.84 1247.84 367.304C1248.64 367.752 1249.54 367.976 1250.53 367.976ZM1276.75 364.232H1274.3V371H1270.48V364.232H1267.99L1264.22 371H1259.73L1264.77 362.216L1260.04 354.2H1264.15L1267.91 360.992H1270.48V354.2H1274.3V360.992H1276.79L1280.59 354.2H1284.69L1279.99 362.216L1285 371H1280.51L1276.75 364.232ZM1299.27 367.88V371H1286.26V354.2H1298.96V357.32H1290.13V360.968H1297.93V363.992H1290.13V367.88H1299.27ZM1317.22 354.2V371H1313.33V364.112H1305.7V371H1301.81V354.2H1305.7V360.824H1313.33V354.2H1317.22ZM1320.83 354.2H1324.69V365.144L1332.71 354.2H1336.36V371H1332.52V360.08L1324.5 371H1320.83V354.2ZM1352.95 367.88V371H1339.94V354.2H1352.64V357.32H1343.81V360.968H1351.61V363.992H1343.81V367.88H1352.95ZM1373.33 362.24C1374.35 362.544 1375.13 363.04 1375.68 363.728C1376.22 364.416 1376.49 365.264 1376.49 366.272C1376.49 367.76 1375.93 368.92 1374.79 369.752C1373.67 370.584 1372.06 371 1369.97 371H1361.69V354.2H1369.51C1371.46 354.2 1372.98 354.576 1374.07 355.328C1375.16 356.08 1375.7 357.152 1375.7 358.544C1375.7 359.376 1375.49 360.112 1375.08 360.752C1374.66 361.376 1374.08 361.872 1373.33 362.24ZM1365.55 361.16H1369.17C1370.02 361.16 1370.66 360.992 1371.09 360.656C1371.53 360.304 1371.74 359.792 1371.74 359.12C1371.74 358.464 1371.52 357.96 1371.07 357.608C1370.64 357.256 1370.01 357.08 1369.17 357.08H1365.55V361.16ZM1369.82 368.12C1371.65 368.12 1372.56 367.4 1372.56 365.96C1372.56 364.568 1371.65 363.872 1369.82 363.872H1365.55V368.12H1369.82ZM1402.78 367.832V374.552H1399.21V371H1385.17V354.2H1389.03V367.832H1396.52V354.2H1400.38V367.832H1402.78ZM1417.75 367.88V371H1404.75V354.2H1417.44V357.32H1408.61V360.968H1416.41V363.992H1408.61V367.88H1417.75ZM1435.7 354.2V371H1431.81V364.112H1424.18V371H1420.29V354.2H1424.18V360.824H1431.81V354.2H1435.7ZM1452.15 357.368H1446.78V371H1442.94V357.368H1437.58V354.2H1452.15V357.368ZM1461.26 354.2C1462.75 354.2 1464.04 354.448 1465.13 354.944C1466.23 355.44 1467.08 356.144 1467.67 357.056C1468.26 357.968 1468.56 359.048 1468.56 360.296C1468.56 361.528 1468.26 362.608 1467.67 363.536C1467.08 364.448 1466.23 365.152 1465.13 365.648C1464.04 366.128 1462.75 366.368 1461.26 366.368H1457.88V371H1453.99V354.2H1461.26ZM1461.05 363.2C1462.22 363.2 1463.1 362.952 1463.71 362.456C1464.32 361.944 1464.62 361.224 1464.62 360.296C1464.62 359.352 1464.32 358.632 1463.71 358.136C1463.1 357.624 1462.22 357.368 1461.05 357.368H1457.88V363.2H1461.05ZM1483.53 367.88V371H1470.53V354.2H1483.22V357.32H1474.39V360.968H1482.19V363.992H1474.39V367.88H1483.53ZM1507.56 371L1507.53 360.944L1502.59 369.224H1500.86L1495.92 361.136V371H1492.27V354.2H1495.49L1501.77 364.64L1507.97 354.2H1511.18L1511.21 371H1507.56ZM1522.8 371.288C1521.05 371.288 1519.48 370.912 1518.07 370.16C1516.68 369.408 1515.58 368.376 1514.78 367.064C1514 365.736 1513.6 364.248 1513.6 362.6C1513.6 360.952 1514 359.472 1514.78 358.16C1515.58 356.832 1516.68 355.792 1518.07 355.04C1519.48 354.288 1521.05 353.912 1522.8 353.912C1524.54 353.912 1526.11 354.288 1527.5 355.04C1528.89 355.792 1529.99 356.832 1530.79 358.16C1531.59 359.472 1531.99 360.952 1531.99 362.6C1531.99 364.248 1531.59 365.736 1530.79 367.064C1529.99 368.376 1528.89 369.408 1527.5 370.16C1526.11 370.912 1524.54 371.288 1522.8 371.288ZM1522.8 367.976C1523.79 367.976 1524.68 367.752 1525.48 367.304C1526.28 366.84 1526.91 366.2 1527.36 365.384C1527.82 364.568 1528.05 363.64 1528.05 362.6C1528.05 361.56 1527.82 360.632 1527.36 359.816C1526.91 359 1526.28 358.368 1525.48 357.92C1524.68 357.456 1523.79 357.224 1522.8 357.224C1521.8 357.224 1520.91 357.456 1520.11 357.92C1519.31 358.368 1518.68 359 1518.21 359.816C1517.76 360.632 1517.54 361.56 1517.54 362.6C1517.54 363.64 1517.76 364.568 1518.21 365.384C1518.68 366.2 1519.31 366.84 1520.11 367.304C1520.91 367.752 1521.8 367.976 1522.8 367.976ZM1542.33 371.288C1540.62 371.288 1539.06 370.92 1537.67 370.184C1536.3 369.432 1535.21 368.4 1534.41 367.088C1533.62 365.76 1533.23 364.264 1533.23 362.6C1533.23 360.936 1533.62 359.448 1534.41 358.136C1535.21 356.808 1536.3 355.776 1537.67 355.04C1539.06 354.288 1540.62 353.912 1542.35 353.912C1543.81 353.912 1545.12 354.168 1546.29 354.68C1547.47 355.192 1548.46 355.928 1549.26 356.888L1546.77 359.192C1545.63 357.88 1544.22 357.224 1542.54 357.224C1541.5 357.224 1540.58 357.456 1539.76 357.92C1538.94 358.368 1538.3 359 1537.84 359.816C1537.39 360.632 1537.17 361.56 1537.17 362.6C1537.17 363.64 1537.39 364.568 1537.84 365.384C1538.3 366.2 1538.94 366.84 1539.76 367.304C1540.58 367.752 1541.5 367.976 1542.54 367.976C1544.22 367.976 1545.63 367.312 1546.77 365.984L1549.26 368.288C1548.46 369.264 1547.47 370.008 1546.29 370.52C1545.1 371.032 1543.78 371.288 1542.33 371.288ZM1557.7 364.232H1555.01V371H1551.15V354.2H1555.01V360.992H1557.8L1562.21 354.2H1566.32L1560.82 362.312L1566.49 371H1562.07L1557.7 364.232ZM1579.35 362.24C1580.37 362.544 1581.15 363.04 1581.7 363.728C1582.24 364.416 1582.51 365.264 1582.51 366.272C1582.51 367.76 1581.95 368.92 1580.81 369.752C1579.69 370.584 1578.08 371 1575.99 371H1567.71V354.2H1575.53C1577.48 354.2 1579 354.576 1580.09 355.328C1581.18 356.08 1581.72 357.152 1581.72 358.544C1581.72 359.376 1581.51 360.112 1581.1 360.752C1580.68 361.376 1580.1 361.872 1579.35 362.24ZM1571.57 361.16H1575.19C1576.04 361.16 1576.68 360.992 1577.11 360.656C1577.55 360.304 1577.76 359.792 1577.76 359.12C1577.76 358.464 1577.54 357.96 1577.09 357.608C1576.66 357.256 1576.03 357.08 1575.19 357.08H1571.57V361.16ZM1575.84 368.12C1577.67 368.12 1578.58 367.4 1578.58 365.96C1578.58 364.568 1577.67 363.872 1575.84 363.872H1571.57V368.12H1575.84ZM1593.13 359.72C1595.17 359.72 1596.74 360.176 1597.83 361.088C1598.93 362 1599.49 363.352 1599.49 365.144C1599.49 367.048 1598.88 368.504 1597.66 369.512C1596.46 370.504 1594.77 371 1592.57 371H1584.99V354.2H1588.85V359.72H1593.13ZM1592.36 368.12C1593.37 368.12 1594.15 367.872 1594.71 367.376C1595.29 366.88 1595.57 366.16 1595.57 365.216C1595.57 363.472 1594.5 362.6 1592.36 362.6H1588.85V368.12H1592.36ZM1601.62 354.2H1605.49V371H1601.62V354.2ZM1610.15 366.536C1610.82 366.536 1611.37 366.752 1611.81 367.184C1612.24 367.6 1612.45 368.152 1612.45 368.84C1612.45 369.16 1612.41 369.48 1612.33 369.8C1612.25 370.12 1612.08 370.6 1611.81 371.24L1610.44 374.696H1608.06L1609.12 370.88C1608.72 370.72 1608.4 370.464 1608.16 370.112C1607.93 369.744 1607.82 369.32 1607.82 368.84C1607.82 368.152 1608.04 367.6 1608.47 367.184C1608.92 366.752 1609.48 366.536 1610.15 366.536ZM1152.42 403.832V410.48H1148.82V407H1136.96V410.48H1133.36L1133.38 403.832H1134.06C1135.06 403.8 1135.78 403.064 1136.19 401.624C1136.61 400.184 1136.86 398.128 1136.96 395.456L1137.15 390.2H1150.06V403.832H1152.42ZM1140.39 395.816C1140.31 397.816 1140.14 399.496 1139.89 400.856C1139.63 402.2 1139.24 403.192 1138.71 403.832H1146.22V393.368H1140.46L1140.39 395.816ZM1154.43 390.2H1158.3V401.144L1166.31 390.2H1169.96V407H1166.12V396.08L1158.11 407H1154.43V390.2ZM1184.92 403.4H1177.12L1175.63 407H1171.65L1179.14 390.2H1182.98L1190.49 407H1186.41L1184.92 403.4ZM1183.7 400.448L1181.03 394.016L1178.37 400.448H1183.7ZM1203.95 393.368H1195.96L1195.98 407H1192.12V390.2H1203.97L1203.95 393.368ZM1221.15 390.2V407H1217.26V400.112H1209.63V407H1205.74V390.2H1209.63V396.824H1217.26V390.2H1221.15ZM1232.78 407.288C1231.03 407.288 1229.46 406.912 1228.05 406.16C1226.66 405.408 1225.56 404.376 1224.76 403.064C1223.98 401.736 1223.58 400.248 1223.58 398.6C1223.58 396.952 1223.98 395.472 1224.76 394.16C1225.56 392.832 1226.66 391.792 1228.05 391.04C1229.46 390.288 1231.03 389.912 1232.78 389.912C1234.52 389.912 1236.09 390.288 1237.48 391.04C1238.87 391.792 1239.97 392.832 1240.77 394.16C1241.57 395.472 1241.97 396.952 1241.97 398.6C1241.97 400.248 1241.57 401.736 1240.77 403.064C1239.97 404.376 1238.87 405.408 1237.48 406.16C1236.09 406.912 1234.52 407.288 1232.78 407.288ZM1232.78 403.976C1233.77 403.976 1234.66 403.752 1235.46 403.304C1236.26 402.84 1236.89 402.2 1237.34 401.384C1237.8 400.568 1238.03 399.64 1238.03 398.6C1238.03 397.56 1237.8 396.632 1237.34 395.816C1236.89 395 1236.26 394.368 1235.46 393.92C1234.66 393.456 1233.77 393.224 1232.78 393.224C1231.78 393.224 1230.89 393.456 1230.09 393.92C1229.29 394.368 1228.66 395 1228.19 395.816C1227.74 396.632 1227.52 397.56 1227.52 398.6C1227.52 399.64 1227.74 400.568 1228.19 401.384C1228.66 402.2 1229.29 402.84 1230.09 403.304C1230.89 403.752 1231.78 403.976 1232.78 403.976ZM1252.31 407.288C1250.6 407.288 1249.04 406.92 1247.65 406.184C1246.28 405.432 1245.19 404.4 1244.39 403.088C1243.6 401.76 1243.21 400.264 1243.21 398.6C1243.21 396.936 1243.6 395.448 1244.39 394.136C1245.19 392.808 1246.28 391.776 1247.65 391.04C1249.04 390.288 1250.6 389.912 1252.33 389.912C1253.79 389.912 1255.1 390.168 1256.27 390.68C1257.45 391.192 1258.44 391.928 1259.24 392.888L1256.75 395.192C1255.61 393.88 1254.2 393.224 1252.52 393.224C1251.48 393.224 1250.56 393.456 1249.74 393.92C1248.92 394.368 1248.28 395 1247.82 395.816C1247.37 396.632 1247.15 397.56 1247.15 398.6C1247.15 399.64 1247.37 400.568 1247.82 401.384C1248.28 402.2 1248.92 402.84 1249.74 403.304C1250.56 403.752 1251.48 403.976 1252.52 403.976C1254.2 403.976 1255.61 403.312 1256.75 401.984L1259.24 404.288C1258.44 405.264 1257.45 406.008 1256.27 406.52C1255.08 407.032 1253.76 407.288 1252.31 407.288ZM1273.85 393.368H1268.48V407H1264.64V393.368H1259.29V390.2H1273.85V393.368ZM1275.69 390.2H1279.56V401.144L1287.57 390.2H1291.22V407H1287.38V396.08L1279.37 407H1275.69V390.2ZM1301.31 400.232H1298.62V407H1294.76V390.2H1298.62V396.992H1301.41L1305.82 390.2H1309.93L1304.43 398.312L1310.09 407H1305.68L1301.31 400.232ZM1322.36 403.4H1314.56L1313.07 407H1309.09L1316.58 390.2H1320.42L1327.93 407H1323.85L1322.36 403.4ZM1321.14 400.448L1318.47 394.016L1315.81 400.448H1321.14ZM1335.76 390.2H1339.62V401.144L1347.64 390.2H1351.28V407H1347.44V396.08L1339.43 407H1335.76V390.2Z" fill="white"/>
<path d="M1375.28 407.288C1373.53 407.288 1371.96 406.912 1370.55 406.16C1369.16 405.408 1368.06 404.376 1367.26 403.064C1366.48 401.736 1366.08 400.248 1366.08 398.6C1366.08 396.952 1366.48 395.472 1367.26 394.16C1368.06 392.832 1369.16 391.792 1370.55 391.04C1371.96 390.288 1373.53 389.912 1375.28 389.912C1377.02 389.912 1378.59 390.288 1379.98 391.04C1381.37 391.792 1382.47 392.832 1383.27 394.16C1384.07 395.472 1384.47 396.952 1384.47 398.6C1384.47 400.248 1384.07 401.736 1383.27 403.064C1382.47 404.376 1381.37 405.408 1379.98 406.16C1378.59 406.912 1377.02 407.288 1375.28 407.288ZM1375.28 403.976C1376.27 403.976 1377.16 403.752 1377.96 403.304C1378.76 402.84 1379.39 402.2 1379.84 401.384C1380.3 400.568 1380.53 399.64 1380.53 398.6C1380.53 397.56 1380.3 396.632 1379.84 395.816C1379.39 395 1378.76 394.368 1377.96 393.92C1377.16 393.456 1376.27 393.224 1375.28 393.224C1374.28 393.224 1373.39 393.456 1372.59 393.92C1371.79 394.368 1371.16 395 1370.69 395.816C1370.24 396.632 1370.02 397.56 1370.02 398.6C1370.02 399.64 1370.24 400.568 1370.69 401.384C1371.16 402.2 1371.79 402.84 1372.59 403.304C1373.39 403.752 1374.28 403.976 1375.28 403.976ZM1404.48 403.832V410.552H1400.9V407H1386.86V390.2H1390.73V403.832H1398.21V390.2H1402.08V403.832H1404.48ZM1419.45 403.88V407H1406.44V390.2H1419.14V393.32H1410.31V396.968H1418.11V399.992H1410.31V403.88H1419.45ZM1437.4 390.2V407H1433.51V400.112H1425.88V407H1421.99V390.2H1425.88V396.824H1433.51V390.2H1437.4ZM1447.51 400.232H1444.82V407H1440.96V390.2H1444.82V396.992H1447.61L1452.02 390.2H1456.13L1450.63 398.312L1456.3 407H1451.88L1447.51 400.232ZM1468.57 403.4H1460.77L1459.28 407H1455.29L1462.78 390.2H1466.62L1474.13 407H1470.05L1468.57 403.4ZM1467.34 400.448L1464.68 394.016L1462.01 400.448H1467.34ZM1493.33 403.4H1485.53L1484.05 407H1480.06L1487.55 390.2H1491.39L1498.9 407H1494.82L1493.33 403.4ZM1492.11 400.448L1489.45 394.016L1486.78 400.448H1492.11ZM1512.17 398.24C1513.19 398.544 1513.98 399.04 1514.52 399.728C1515.07 400.416 1515.34 401.264 1515.34 402.272C1515.34 403.76 1514.77 404.92 1513.63 405.752C1512.51 406.584 1510.91 407 1508.81 407H1500.53V390.2H1508.35C1510.31 390.2 1511.83 390.576 1512.91 391.328C1514 392.08 1514.55 393.152 1514.55 394.544C1514.55 395.376 1514.34 396.112 1513.92 396.752C1513.51 397.376 1512.92 397.872 1512.17 398.24ZM1504.39 397.16H1508.02C1508.87 397.16 1509.51 396.992 1509.94 396.656C1510.37 396.304 1510.59 395.792 1510.59 395.12C1510.59 394.464 1510.36 393.96 1509.91 393.608C1509.48 393.256 1508.85 393.08 1508.02 393.08H1504.39V397.16ZM1508.67 404.12C1510.49 404.12 1511.4 403.4 1511.4 401.96C1511.4 400.568 1510.49 399.872 1508.67 399.872H1504.39V404.12H1508.67ZM1530.42 393.368H1525.04V407H1521.2V393.368H1515.85V390.2H1530.42V393.368ZM1357.64 426.2V443H1353.78V429.368H1346.19V443H1342.33V426.2H1357.64ZM1376.06 426.2V443H1372.22V429.368H1366.46L1366.34 432.872C1366.26 435.256 1366.07 437.192 1365.77 438.68C1365.46 440.152 1364.95 441.288 1364.23 442.088C1363.53 442.872 1362.53 443.264 1361.25 443.264C1360.73 443.264 1360.09 443.176 1359.33 443L1359.57 439.712C1359.78 439.776 1360.01 439.808 1360.27 439.808C1361.2 439.808 1361.85 439.264 1362.21 438.176C1362.58 437.072 1362.81 435.352 1362.91 433.016L1363.15 426.2H1376.06ZM1394.49 425.912C1396.17 425.912 1397.68 426.288 1399.03 427.04C1400.39 427.792 1401.45 428.832 1402.22 430.16C1402.99 431.472 1403.37 432.952 1403.37 434.6C1403.37 436.248 1402.99 437.736 1402.22 439.064C1401.45 440.376 1400.39 441.408 1399.03 442.16C1397.68 442.912 1396.17 443.288 1394.49 443.288C1392.99 443.288 1391.61 442.992 1390.36 442.4C1389.11 441.792 1388.08 440.952 1387.27 439.88C1386.47 438.792 1385.95 437.552 1385.73 436.16H1383.52V443H1379.66V426.2H1383.52V432.8H1385.78C1386.03 431.456 1386.56 430.264 1387.36 429.224C1388.18 428.168 1389.2 427.352 1390.43 426.776C1391.67 426.2 1393.02 425.912 1394.49 425.912ZM1394.49 439.976C1395.42 439.976 1396.26 439.752 1397.01 439.304C1397.76 438.856 1398.35 438.224 1398.79 437.408C1399.22 436.592 1399.43 435.656 1399.43 434.6C1399.43 433.544 1399.22 432.608 1398.79 431.792C1398.35 430.976 1397.76 430.344 1397.01 429.896C1396.26 429.448 1395.42 429.224 1394.49 429.224C1393.56 429.224 1392.72 429.448 1391.97 429.896C1391.22 430.344 1390.63 430.976 1390.19 431.792C1389.76 432.608 1389.55 433.544 1389.55 434.6C1389.55 435.656 1389.76 436.592 1390.19 437.408C1390.63 438.224 1391.22 438.856 1391.97 439.304C1392.72 439.752 1393.56 439.976 1394.49 439.976ZM1413.74 443.288C1412.03 443.288 1410.48 442.92 1409.09 442.184C1407.71 441.432 1406.62 440.4 1405.82 439.088C1405.04 437.76 1404.65 436.264 1404.65 434.6C1404.65 432.936 1405.04 431.448 1405.82 430.136C1406.62 428.808 1407.71 427.776 1409.09 427.04C1410.48 426.288 1412.04 425.912 1413.77 425.912C1415.22 425.912 1416.54 426.168 1417.7 426.68C1418.89 427.192 1419.88 427.928 1420.68 428.888L1418.18 431.192C1417.05 429.88 1415.64 429.224 1413.96 429.224C1412.92 429.224 1411.99 429.456 1411.18 429.92C1410.36 430.368 1409.72 431 1409.26 431.816C1408.81 432.632 1408.58 433.56 1408.58 434.6C1408.58 435.64 1408.81 436.568 1409.26 437.384C1409.72 438.2 1410.36 438.84 1411.18 439.304C1411.99 439.752 1412.92 439.976 1413.96 439.976C1415.64 439.976 1417.05 439.312 1418.18 437.984L1420.68 440.288C1419.88 441.264 1418.89 442.008 1417.7 442.52C1416.52 443.032 1415.2 443.288 1413.74 443.288ZM1430.28 443.288C1428.53 443.288 1426.96 442.912 1425.55 442.16C1424.16 441.408 1423.06 440.376 1422.26 439.064C1421.48 437.736 1421.09 436.248 1421.09 434.6C1421.09 432.952 1421.48 431.472 1422.26 430.16C1423.06 428.832 1424.16 427.792 1425.55 427.04C1426.96 426.288 1428.53 425.912 1430.28 425.912C1432.02 425.912 1433.59 426.288 1434.98 427.04C1436.37 427.792 1437.47 428.832 1438.27 430.16C1439.07 431.472 1439.47 432.952 1439.47 434.6C1439.47 436.248 1439.07 437.736 1438.27 439.064C1437.47 440.376 1436.37 441.408 1434.98 442.16C1433.59 442.912 1432.02 443.288 1430.28 443.288ZM1430.28 439.976C1431.27 439.976 1432.17 439.752 1432.97 439.304C1433.77 438.84 1434.39 438.2 1434.84 437.384C1435.3 436.568 1435.53 435.64 1435.53 434.6C1435.53 433.56 1435.3 432.632 1434.84 431.816C1434.39 431 1433.77 430.368 1432.97 429.92C1432.17 429.456 1431.27 429.224 1430.28 429.224C1429.29 429.224 1428.39 429.456 1427.59 429.92C1426.79 430.368 1426.16 431 1425.69 431.816C1425.25 432.632 1425.02 433.56 1425.02 434.6C1425.02 435.64 1425.25 436.568 1425.69 437.384C1426.16 438.2 1426.79 438.84 1427.59 439.304C1428.39 439.752 1429.29 439.976 1430.28 439.976ZM1453.51 434.24C1454.53 434.544 1455.31 435.04 1455.86 435.728C1456.4 436.416 1456.67 437.264 1456.67 438.272C1456.67 439.76 1456.11 440.92 1454.97 441.752C1453.85 442.584 1452.24 443 1450.15 443H1441.87V426.2H1449.69C1451.64 426.2 1453.16 426.576 1454.25 427.328C1455.34 428.08 1455.88 429.152 1455.88 430.544C1455.88 431.376 1455.67 432.112 1455.26 432.752C1454.84 433.376 1454.26 433.872 1453.51 434.24ZM1445.73 433.16H1449.35C1450.2 433.16 1450.84 432.992 1451.27 432.656C1451.71 432.304 1451.92 431.792 1451.92 431.12C1451.92 430.464 1451.7 429.96 1451.25 429.608C1450.82 429.256 1450.19 429.08 1449.35 429.08H1445.73V433.16ZM1450 440.12C1451.83 440.12 1452.74 439.4 1452.74 437.96C1452.74 436.568 1451.83 435.872 1450 435.872H1445.73V440.12H1450Z" fill="#E44D0C"/>
<path d="M1540.28 407.288C1538.53 407.288 1536.96 406.912 1535.55 406.16C1534.16 405.408 1533.06 404.376 1532.26 403.064C1531.48 401.736 1531.08 400.248 1531.08 398.6C1531.08 396.952 1531.48 395.472 1532.26 394.16C1533.06 392.832 1534.16 391.792 1535.55 391.04C1536.96 390.288 1538.53 389.912 1540.28 389.912C1542.02 389.912 1543.59 390.288 1544.98 391.04C1546.37 391.792 1547.47 392.832 1548.27 394.16C1549.07 395.472 1549.47 396.952 1549.47 398.6C1549.47 400.248 1549.07 401.736 1548.27 403.064C1547.47 404.376 1546.37 405.408 1544.98 406.16C1543.59 406.912 1542.02 407.288 1540.28 407.288ZM1540.28 403.976C1541.27 403.976 1542.16 403.752 1542.96 403.304C1543.76 402.84 1544.39 402.2 1544.84 401.384C1545.3 400.568 1545.53 399.64 1545.53 398.6C1545.53 397.56 1545.3 396.632 1544.84 395.816C1544.39 395 1543.76 394.368 1542.96 393.92C1542.16 393.456 1541.27 393.224 1540.28 393.224C1539.28 393.224 1538.39 393.456 1537.59 393.92C1536.79 394.368 1536.16 395 1535.69 395.816C1535.24 396.632 1535.02 397.56 1535.02 398.6C1535.02 399.64 1535.24 400.568 1535.69 401.384C1536.16 402.2 1536.79 402.84 1537.59 403.304C1538.39 403.752 1539.28 403.976 1540.28 403.976Z" fill="#F10E0E"/>
<path d="M1557.22 398.744H1564.01V401.744H1557.22V398.744ZM1584.55 398.24C1585.58 398.544 1586.36 399.04 1586.91 399.728C1587.45 400.416 1587.72 401.264 1587.72 402.272C1587.72 403.76 1587.15 404.92 1586.02 405.752C1584.9 406.584 1583.29 407 1581.19 407H1572.91V390.2H1580.74C1582.69 390.2 1584.21 390.576 1585.3 391.328C1586.39 392.08 1586.93 393.152 1586.93 394.544C1586.93 395.376 1586.72 396.112 1586.31 396.752C1585.89 397.376 1585.31 397.872 1584.55 398.24ZM1576.78 397.16H1580.4C1581.25 397.16 1581.89 396.992 1582.32 396.656C1582.75 396.304 1582.97 395.792 1582.97 395.12C1582.97 394.464 1582.75 393.96 1582.3 393.608C1581.87 393.256 1581.23 393.08 1580.4 393.08H1576.78V397.16ZM1581.05 404.12C1582.87 404.12 1583.79 403.4 1583.79 401.96C1583.79 400.568 1582.87 399.872 1581.05 399.872H1576.78V404.12H1581.05ZM1598.21 407.288C1596.47 407.288 1594.89 406.912 1593.49 406.16C1592.09 405.408 1591 404.376 1590.2 403.064C1589.41 401.736 1589.02 400.248 1589.02 398.6C1589.02 396.952 1589.41 395.472 1590.2 394.16C1591 392.832 1592.09 391.792 1593.49 391.04C1594.89 390.288 1596.47 389.912 1598.21 389.912C1599.96 389.912 1601.53 390.288 1602.92 391.04C1604.31 391.792 1605.41 392.832 1606.21 394.16C1607.01 395.472 1607.41 396.952 1607.41 398.6C1607.41 400.248 1607.01 401.736 1606.21 403.064C1605.41 404.376 1604.31 405.408 1602.92 406.16C1601.53 406.912 1599.96 407.288 1598.21 407.288ZM1598.21 403.976C1599.21 403.976 1600.1 403.752 1600.9 403.304C1601.7 402.84 1602.33 402.2 1602.77 401.384C1603.24 400.568 1603.47 399.64 1603.47 398.6C1603.47 397.56 1603.24 396.632 1602.77 395.816C1602.33 395 1601.7 394.368 1600.9 393.92C1600.1 393.456 1599.21 393.224 1598.21 393.224C1597.22 393.224 1596.33 393.456 1595.53 393.92C1594.73 394.368 1594.09 395 1593.63 395.816C1593.18 396.632 1592.96 397.56 1592.96 398.6C1592.96 399.64 1593.18 400.568 1593.63 401.384C1594.09 402.2 1594.73 402.84 1595.53 403.304C1596.33 403.752 1597.22 403.976 1598.21 403.976ZM1622.41 393.368H1617.03V407H1613.19V393.368H1607.84V390.2H1622.41V393.368ZM1645.42 390.2V407H1641.58V393.368H1635.82L1635.7 396.872C1635.62 399.256 1635.43 401.192 1635.12 402.68C1634.82 404.152 1634.31 405.288 1633.59 406.088C1632.88 406.872 1631.89 407.264 1630.61 407.264C1630.08 407.264 1629.44 407.176 1628.69 407L1628.93 403.712C1629.14 403.776 1629.37 403.808 1629.63 403.808C1630.56 403.808 1631.2 403.264 1631.57 402.176C1631.94 401.072 1632.17 399.352 1632.27 397.016L1632.51 390.2H1645.42ZM1649.02 390.2H1652.88V401.144L1660.9 390.2H1664.54V407H1660.7V396.08L1652.69 407H1649.02V390.2ZM1690.3 390.2V407H1668.13V390.2H1671.99V403.832H1677.3V390.2H1681.16V403.832H1686.44V390.2H1690.3ZM1702.01 395.72C1704.05 395.72 1705.62 396.176 1706.71 397.088C1707.81 398 1708.37 399.352 1708.37 401.144C1708.37 403.048 1707.76 404.504 1706.54 405.512C1705.34 406.504 1703.65 407 1701.45 407H1693.87V390.2H1697.73V395.72H1702.01ZM1701.24 404.12C1702.25 404.12 1703.03 403.872 1703.59 403.376C1704.17 402.88 1704.45 402.16 1704.45 401.216C1704.45 399.472 1703.38 398.6 1701.24 398.6H1697.73V404.12H1701.24ZM1150.5 426.2V443H1146.61V436.112H1138.98V443H1135.09V426.2H1138.98V432.824H1146.61V426.2H1150.5ZM1167.11 439.88V443H1154.11V426.2H1166.8V429.32H1157.97V432.968H1165.77V435.992H1157.97V439.88H1167.11ZM1176.16 436.232H1173.47V443H1169.61V426.2H1173.47V432.992H1176.25L1180.67 426.2H1184.77L1179.28 434.312L1184.94 443H1180.53L1176.16 436.232ZM1194.11 443.288C1192.36 443.288 1190.79 442.912 1189.38 442.16C1187.99 441.408 1186.89 440.376 1186.09 439.064C1185.31 437.736 1184.92 436.248 1184.92 434.6C1184.92 432.952 1185.31 431.472 1186.09 430.16C1186.89 428.832 1187.99 427.792 1189.38 427.04C1190.79 426.288 1192.36 425.912 1194.11 425.912C1195.85 425.912 1197.42 426.288 1198.81 427.04C1200.2 427.792 1201.3 428.832 1202.1 430.16C1202.9 431.472 1203.3 432.952 1203.3 434.6C1203.3 436.248 1202.9 437.736 1202.1 439.064C1201.3 440.376 1200.2 441.408 1198.81 442.16C1197.42 442.912 1195.85 443.288 1194.11 443.288ZM1194.11 439.976C1195.1 439.976 1196 439.752 1196.8 439.304C1197.6 438.84 1198.22 438.2 1198.67 437.384C1199.13 436.568 1199.36 435.64 1199.36 434.6C1199.36 433.56 1199.13 432.632 1198.67 431.816C1198.22 431 1197.6 430.368 1196.8 429.92C1196 429.456 1195.1 429.224 1194.11 429.224C1193.12 429.224 1192.22 429.456 1191.42 429.92C1190.62 430.368 1189.99 431 1189.52 431.816C1189.08 432.632 1188.85 433.56 1188.85 434.6C1188.85 435.64 1189.08 436.568 1189.52 437.384C1189.99 438.2 1190.62 438.84 1191.42 439.304C1192.22 439.752 1193.12 439.976 1194.11 439.976ZM1218.3 429.368H1212.93V443H1209.09V429.368H1203.73V426.2H1218.3V429.368ZM1227.92 443.288C1226.18 443.288 1224.6 442.912 1223.2 442.16C1221.8 441.408 1220.71 440.376 1219.91 439.064C1219.12 437.736 1218.73 436.248 1218.73 434.6C1218.73 432.952 1219.12 431.472 1219.91 430.16C1220.71 428.832 1221.8 427.792 1223.2 427.04C1224.6 426.288 1226.18 425.912 1227.92 425.912C1229.67 425.912 1231.24 426.288 1232.63 427.04C1234.02 427.792 1235.12 428.832 1235.92 430.16C1236.72 431.472 1237.12 432.952 1237.12 434.6C1237.12 436.248 1236.72 437.736 1235.92 439.064C1235.12 440.376 1234.02 441.408 1232.63 442.16C1231.24 442.912 1229.67 443.288 1227.92 443.288ZM1227.92 439.976C1228.92 439.976 1229.81 439.752 1230.61 439.304C1231.41 438.84 1232.04 438.2 1232.48 437.384C1232.95 436.568 1233.18 435.64 1233.18 434.6C1233.18 433.56 1232.95 432.632 1232.48 431.816C1232.04 431 1231.41 430.368 1230.61 429.92C1229.81 429.456 1228.92 429.224 1227.92 429.224C1226.93 429.224 1226.04 429.456 1225.24 429.92C1224.44 430.368 1223.8 431 1223.34 431.816C1222.89 432.632 1222.67 433.56 1222.67 434.6C1222.67 435.64 1222.89 436.568 1223.34 437.384C1223.8 438.2 1224.44 438.84 1225.24 439.304C1226.04 439.752 1226.93 439.976 1227.92 439.976ZM1246.78 426.2C1248.27 426.2 1249.56 426.448 1250.65 426.944C1251.75 427.44 1252.6 428.144 1253.19 429.056C1253.78 429.968 1254.08 431.048 1254.08 432.296C1254.08 433.528 1253.78 434.608 1253.19 435.536C1252.6 436.448 1251.75 437.152 1250.65 437.648C1249.56 438.128 1248.27 438.368 1246.78 438.368H1243.4V443H1239.51V426.2H1246.78ZM1246.57 435.2C1247.74 435.2 1248.62 434.952 1249.23 434.456C1249.84 433.944 1250.14 433.224 1250.14 432.296C1250.14 431.352 1249.84 430.632 1249.23 430.136C1248.62 429.624 1247.74 429.368 1246.57 429.368H1243.4V435.2H1246.57ZM1264.18 431.72C1266.23 431.72 1267.8 432.176 1268.88 433.088C1269.99 434 1270.54 435.352 1270.54 437.144C1270.54 439.048 1269.93 440.504 1268.72 441.512C1267.52 442.504 1265.82 443 1263.63 443H1256.04V426.2H1259.91V431.72H1264.18ZM1263.41 440.12C1264.42 440.12 1265.2 439.872 1265.76 439.376C1266.34 438.88 1266.63 438.16 1266.63 437.216C1266.63 435.472 1265.56 434.6 1263.41 434.6H1259.91V440.12H1263.41ZM1272.68 426.2H1276.54V443H1272.68V426.2ZM1293.13 439.88V443H1280.12V426.2H1292.82V429.32H1283.99V432.968H1291.79V435.992H1283.99V439.88H1293.13ZM1301.87 426.2H1305.73V437.144L1313.75 426.2H1317.4V443H1313.56V432.08L1305.54 443H1301.87V426.2ZM1330.53 434.24C1331.51 434.576 1332.27 435.104 1332.81 435.824C1333.37 436.528 1333.65 437.352 1333.65 438.296C1333.65 439.32 1333.32 440.208 1332.64 440.96C1331.97 441.712 1331.06 442.288 1329.91 442.688C1328.77 443.088 1327.52 443.288 1326.16 443.288C1325.01 443.288 1323.86 443.144 1322.71 442.856C1321.57 442.568 1320.49 442.128 1319.47 441.536L1320.67 438.752C1321.4 439.2 1322.21 439.544 1323.09 439.784C1323.99 440.008 1324.86 440.12 1325.71 440.12C1326.86 440.12 1327.81 439.912 1328.56 439.496C1329.33 439.08 1329.72 438.496 1329.72 437.744C1329.72 437.12 1329.45 436.648 1328.92 436.328C1328.41 436.008 1327.71 435.848 1326.81 435.848H1322.71V432.92H1326.52C1327.31 432.92 1327.92 432.76 1328.35 432.44C1328.8 432.12 1329.02 431.68 1329.02 431.12C1329.02 430.464 1328.7 429.952 1328.06 429.584C1327.44 429.216 1326.63 429.032 1325.64 429.032C1324.9 429.032 1324.14 429.136 1323.36 429.344C1322.57 429.536 1321.83 429.832 1321.12 430.232L1319.95 427.208C1321.72 426.296 1323.64 425.84 1325.71 425.84C1327.02 425.84 1328.23 426.032 1329.33 426.416C1330.44 426.8 1331.32 427.36 1331.97 428.096C1332.63 428.832 1332.96 429.688 1332.96 430.664C1332.96 431.464 1332.74 432.176 1332.31 432.8C1331.88 433.424 1331.28 433.904 1330.53 434.24ZM1480.66 426.2V443H1476.79V429.368H1469.21V443H1465.35V426.2H1480.66ZM1492.24 443.288C1490.49 443.288 1488.92 442.912 1487.51 442.16C1486.12 441.408 1485.02 440.376 1484.22 439.064C1483.44 437.736 1483.05 436.248 1483.05 434.6C1483.05 432.952 1483.44 431.472 1484.22 430.16C1485.02 428.832 1486.12 427.792 1487.51 427.04C1488.92 426.288 1490.49 425.912 1492.24 425.912C1493.98 425.912 1495.55 426.288 1496.94 427.04C1498.33 427.792 1499.43 428.832 1500.23 430.16C1501.03 431.472 1501.43 432.952 1501.43 434.6C1501.43 436.248 1501.03 437.736 1500.23 439.064C1499.43 440.376 1498.33 441.408 1496.94 442.16C1495.55 442.912 1493.98 443.288 1492.24 443.288ZM1492.24 439.976C1493.23 439.976 1494.13 439.752 1494.93 439.304C1495.73 438.84 1496.35 438.2 1496.8 437.384C1497.26 436.568 1497.49 435.64 1497.49 434.6C1497.49 433.56 1497.26 432.632 1496.8 431.816C1496.35 431 1495.73 430.368 1494.93 429.92C1494.13 429.456 1493.23 429.224 1492.24 429.224C1491.25 429.224 1490.35 429.456 1489.55 429.92C1488.75 430.368 1488.12 431 1487.65 431.816C1487.21 432.632 1486.98 433.56 1486.98 434.6C1486.98 435.64 1487.21 436.568 1487.65 437.384C1488.12 438.2 1488.75 438.84 1489.55 439.304C1490.35 439.752 1491.25 439.976 1492.24 439.976ZM1511.77 443.288C1510.06 443.288 1508.51 442.92 1507.11 442.184C1505.74 441.432 1504.65 440.4 1503.85 439.088C1503.07 437.76 1502.67 436.264 1502.67 434.6C1502.67 432.936 1503.07 431.448 1503.85 430.136C1504.65 428.808 1505.74 427.776 1507.11 427.04C1508.51 426.288 1510.07 425.912 1511.79 425.912C1513.25 425.912 1514.56 426.168 1515.73 426.68C1516.91 427.192 1517.91 427.928 1518.71 428.888L1516.21 431.192C1515.07 429.88 1513.67 429.224 1511.99 429.224C1510.95 429.224 1510.02 429.456 1509.2 429.92C1508.39 430.368 1507.75 431 1507.28 431.816C1506.83 432.632 1506.61 433.56 1506.61 434.6C1506.61 435.64 1506.83 436.568 1507.28 437.384C1507.75 438.2 1508.39 438.84 1509.2 439.304C1510.02 439.752 1510.95 439.976 1511.99 439.976C1513.67 439.976 1515.07 439.312 1516.21 437.984L1518.71 440.288C1517.91 441.264 1516.91 442.008 1515.73 442.52C1514.55 443.032 1513.23 443.288 1511.77 443.288ZM1533.32 429.368H1527.94V443H1524.1V429.368H1518.75V426.2H1533.32V429.368ZM1545.69 439.4H1537.89L1536.4 443H1532.42L1539.91 426.2H1543.75L1551.26 443H1547.18L1545.69 439.4ZM1544.47 436.448L1541.8 430.016L1539.14 436.448H1544.47ZM1568.29 426.2V443H1564.4V436.112H1556.77V443H1552.88V426.2H1556.77V432.824H1564.4V426.2H1568.29ZM1579.92 443.288C1578.17 443.288 1576.6 442.912 1575.19 442.16C1573.8 441.408 1572.7 440.376 1571.9 439.064C1571.12 437.736 1570.73 436.248 1570.73 434.6C1570.73 432.952 1571.12 431.472 1571.9 430.16C1572.7 428.832 1573.8 427.792 1575.19 427.04C1576.6 426.288 1578.17 425.912 1579.92 425.912C1581.66 425.912 1583.23 426.288 1584.62 427.04C1586.01 427.792 1587.11 428.832 1587.91 430.16C1588.71 431.472 1589.11 432.952 1589.11 434.6C1589.11 436.248 1588.71 437.736 1587.91 439.064C1587.11 440.376 1586.01 441.408 1584.62 442.16C1583.23 442.912 1581.66 443.288 1579.92 443.288ZM1579.92 439.976C1580.91 439.976 1581.81 439.752 1582.61 439.304C1583.41 438.84 1584.03 438.2 1584.48 437.384C1584.94 436.568 1585.17 435.64 1585.17 434.6C1585.17 433.56 1584.94 432.632 1584.48 431.816C1584.03 431 1583.41 430.368 1582.61 429.92C1581.81 429.456 1580.91 429.224 1579.92 429.224C1578.93 429.224 1578.03 429.456 1577.23 429.92C1576.43 430.368 1575.8 431 1575.33 431.816C1574.89 432.632 1574.66 433.56 1574.66 434.6C1574.66 435.64 1574.89 436.568 1575.33 437.384C1575.8 438.2 1576.43 438.84 1577.23 439.304C1578.03 439.752 1578.93 439.976 1579.92 439.976ZM1603.15 434.24C1604.17 434.544 1604.95 435.04 1605.5 435.728C1606.04 436.416 1606.31 437.264 1606.31 438.272C1606.31 439.76 1605.75 440.92 1604.61 441.752C1603.49 442.584 1601.88 443 1599.79 443H1591.51V426.2H1599.33C1601.28 426.2 1602.8 426.576 1603.89 427.328C1604.98 428.08 1605.52 429.152 1605.52 430.544C1605.52 431.376 1605.31 432.112 1604.9 432.752C1604.48 433.376 1603.9 433.872 1603.15 434.24ZM1595.37 433.16H1598.99C1599.84 433.16 1600.48 432.992 1600.91 432.656C1601.35 432.304 1601.56 431.792 1601.56 431.12C1601.56 430.464 1601.34 429.96 1600.89 429.608C1600.46 429.256 1599.83 429.08 1598.99 429.08H1595.37V433.16ZM1599.64 440.12C1601.47 440.12 1602.38 439.4 1602.38 437.96C1602.38 436.568 1601.47 435.872 1599.64 435.872H1595.37V440.12H1599.64ZM1615.29 436.232H1612.6V443H1608.74V426.2H1612.6V432.992H1615.39L1619.8 426.2H1623.91L1618.41 434.312L1624.08 443H1619.66L1615.29 436.232ZM1625.3 426.2H1629.16V437.144L1637.18 426.2H1640.83V443H1636.99V432.08L1628.97 443H1625.3V426.2ZM1146.73 470.24C1147.75 470.544 1148.54 471.04 1149.08 471.728C1149.62 472.416 1149.9 473.264 1149.9 474.272C1149.9 475.76 1149.33 476.92 1148.19 477.752C1147.07 478.584 1145.46 479 1143.37 479H1135.09V462.2H1142.91C1144.86 462.2 1146.38 462.576 1147.47 463.328C1148.56 464.08 1149.1 465.152 1149.1 466.544C1149.1 467.376 1148.9 468.112 1148.48 468.752C1148.06 469.376 1147.48 469.872 1146.73 470.24ZM1138.95 469.16H1142.58C1143.42 469.16 1144.06 468.992 1144.5 468.656C1144.93 468.304 1145.14 467.792 1145.14 467.12C1145.14 466.464 1144.92 465.96 1144.47 465.608C1144.04 465.256 1143.41 465.08 1142.58 465.08H1138.95V469.16ZM1143.22 476.12C1145.05 476.12 1145.96 475.4 1145.96 473.96C1145.96 472.568 1145.05 471.872 1143.22 471.872H1138.95V476.12H1143.22ZM1163.75 475.4H1155.95L1154.46 479H1150.47L1157.96 462.2H1161.8L1169.31 479H1165.23L1163.75 475.4ZM1162.52 472.448L1159.86 466.016L1157.19 472.448H1162.52ZM1193.12 462.2V479H1170.94V462.2H1174.81V475.832H1180.11V462.2H1183.97V475.832H1189.25V462.2H1193.12ZM1209.69 475.88V479H1196.69V462.2H1209.38V465.32H1200.55V468.968H1208.35V471.992H1200.55V475.88H1209.69ZM1212.23 462.2H1216.1V473.144L1224.11 462.2H1227.76V479H1223.92V468.08L1215.91 479H1212.23V462.2ZM1219.99 461.12C1216.91 461.12 1215.36 459.896 1215.33 457.448H1217.99C1218.03 458.616 1218.69 459.2 1219.99 459.2C1220.63 459.2 1221.11 459.056 1221.45 458.768C1221.79 458.464 1221.96 458.024 1221.98 457.448H1224.64C1224.63 458.648 1224.23 459.56 1223.47 460.184C1222.7 460.808 1221.54 461.12 1219.99 461.12ZM1252.83 479L1252.81 468.944L1247.86 477.224H1246.13L1241.19 469.136V479H1237.54V462.2H1240.76L1247.05 472.64L1253.24 462.2H1256.45L1256.48 479H1252.83ZM1271.43 475.4H1263.63L1262.14 479H1258.16L1265.64 462.2H1269.48L1277 479H1272.92L1271.43 475.4ZM1270.2 472.448L1267.54 466.016L1264.88 472.448H1270.2ZM1300.8 462.2V479H1278.62V462.2H1282.49V475.832H1287.79V462.2H1291.66V475.832H1296.94V462.2H1300.8ZM1304.37 462.2H1308.23V473.144L1316.25 462.2H1319.9V479H1316.06V468.08L1308.04 479H1304.37V462.2ZM1338.89 462.2V479H1335V472.112H1327.37V479H1323.48V462.2H1327.37V468.824H1335V462.2H1338.89ZM1350.63 467.72C1352.68 467.72 1354.25 468.176 1355.34 469.088C1356.44 470 1356.99 471.352 1356.99 473.144C1356.99 475.048 1356.38 476.504 1355.17 477.512C1353.97 478.504 1352.27 479 1350.08 479H1342.5V462.2H1346.36V467.72H1350.63ZM1349.86 476.12C1350.87 476.12 1351.66 475.872 1352.22 475.376C1352.79 474.88 1353.08 474.16 1353.08 473.216C1353.08 471.472 1352.01 470.6 1349.86 470.6H1346.36V476.12H1349.86ZM1359.13 462.2H1362.99V479H1359.13V462.2ZM1388.18 462.2V479H1384.29V472.112H1376.66V479H1372.77V462.2H1376.66V468.824H1384.29V462.2H1388.18ZM1403.17 475.4H1395.37L1393.88 479H1389.89L1397.38 462.2H1401.22L1408.73 479H1404.65L1403.17 475.4ZM1401.94 472.448L1399.28 466.016L1396.61 472.448H1401.94ZM1423.06 472.232H1420.37V479H1416.51V462.2H1420.37V468.992H1423.16L1427.57 462.2H1431.68L1426.18 470.312L1431.85 479H1427.43L1423.06 472.232ZM1441.01 479.288C1439.27 479.288 1437.69 478.912 1436.29 478.16C1434.89 477.408 1433.8 476.376 1433 475.064C1432.21 473.736 1431.82 472.248 1431.82 470.6C1431.82 468.952 1432.21 467.472 1433 466.16C1433.8 464.832 1434.89 463.792 1436.29 463.04C1437.69 462.288 1439.27 461.912 1441.01 461.912C1442.76 461.912 1444.33 462.288 1445.72 463.04C1447.11 463.792 1448.21 464.832 1449.01 466.16C1449.81 467.472 1450.21 468.952 1450.21 470.6C1450.21 472.248 1449.81 473.736 1449.01 475.064C1448.21 476.376 1447.11 477.408 1445.72 478.16C1444.33 478.912 1442.76 479.288 1441.01 479.288ZM1441.01 475.976C1442.01 475.976 1442.9 475.752 1443.7 475.304C1444.5 474.84 1445.13 474.2 1445.57 473.384C1446.04 472.568 1446.27 471.64 1446.27 470.6C1446.27 469.56 1446.04 468.632 1445.57 467.816C1445.13 467 1444.5 466.368 1443.7 465.92C1442.9 465.456 1442.01 465.224 1441.01 465.224C1440.02 465.224 1439.13 465.456 1438.33 465.92C1437.53 466.368 1436.89 467 1436.43 467.816C1435.98 468.632 1435.76 469.56 1435.76 470.6C1435.76 471.64 1435.98 472.568 1436.43 473.384C1436.89 474.2 1437.53 474.84 1438.33 475.304C1439.13 475.752 1440.02 475.976 1441.01 475.976ZM1467.89 479L1467.86 468.944L1462.92 477.224H1461.19L1456.25 469.136V479H1452.6V462.2H1455.82L1462.1 472.64L1468.3 462.2H1471.51L1471.54 479H1467.89ZM1475.11 462.2H1478.97V473.144L1486.99 462.2H1490.64V479H1486.8V468.08L1478.78 479H1475.11V462.2ZM1502.16 479.288C1500.45 479.288 1498.9 478.92 1497.51 478.184C1496.13 477.432 1495.04 476.4 1494.24 475.088C1493.46 473.76 1493.07 472.264 1493.07 470.6C1493.07 468.936 1493.46 467.448 1494.24 466.136C1495.04 464.808 1496.13 463.776 1497.51 463.04C1498.9 462.288 1500.46 461.912 1502.19 461.912C1503.64 461.912 1504.96 462.168 1506.12 462.68C1507.31 463.192 1508.3 463.928 1509.1 464.888L1506.6 467.192C1505.47 465.88 1504.06 465.224 1502.38 465.224C1501.34 465.224 1500.41 465.456 1499.6 465.92C1498.78 466.368 1498.14 467 1497.68 467.816C1497.23 468.632 1497 469.56 1497 470.6C1497 471.64 1497.23 472.568 1497.68 473.384C1498.14 474.2 1498.78 474.84 1499.6 475.304C1500.41 475.752 1501.34 475.976 1502.38 475.976C1504.06 475.976 1505.47 475.312 1506.6 473.984L1509.1 476.288C1508.3 477.264 1507.31 478.008 1506.12 478.52C1504.94 479.032 1503.62 479.288 1502.16 479.288ZM1518.63 479.288C1516.92 479.288 1515.36 478.92 1513.97 478.184C1512.6 477.432 1511.51 476.4 1510.71 475.088C1509.92 473.76 1509.53 472.264 1509.53 470.6C1509.53 468.936 1509.92 467.448 1510.71 466.136C1511.51 464.808 1512.6 463.776 1513.97 463.04C1515.36 462.288 1516.92 461.912 1518.65 461.912C1520.11 461.912 1521.42 462.168 1522.59 462.68C1523.77 463.192 1524.76 463.928 1525.56 464.888L1523.07 467.192C1521.93 465.88 1520.52 465.224 1518.84 465.224C1517.8 465.224 1516.88 465.456 1516.06 465.92C1515.24 466.368 1514.6 467 1514.14 467.816C1513.69 468.632 1513.47 469.56 1513.47 470.6C1513.47 471.64 1513.69 472.568 1514.14 473.384C1514.6 474.2 1515.24 474.84 1516.06 475.304C1516.88 475.752 1517.8 475.976 1518.84 475.976C1520.52 475.976 1521.93 475.312 1523.07 473.984L1525.56 476.288C1524.76 477.264 1523.77 478.008 1522.59 478.52C1521.4 479.032 1520.08 479.288 1518.63 479.288ZM1527.5 462.2H1531.36V473.144L1539.38 462.2H1543.03V479H1539.19V468.08L1531.17 479H1527.5V462.2ZM1561.44 461.912C1563.12 461.912 1564.63 462.288 1565.98 463.04C1567.34 463.792 1568.4 464.832 1569.17 466.16C1569.94 467.472 1570.32 468.952 1570.32 470.6C1570.32 472.248 1569.94 473.736 1569.17 475.064C1568.4 476.376 1567.34 477.408 1565.98 478.16C1564.63 478.912 1563.12 479.288 1561.44 479.288C1559.94 479.288 1558.56 478.992 1557.31 478.4C1556.06 477.792 1555.03 476.952 1554.22 475.88C1553.42 474.792 1552.9 473.552 1552.68 472.16H1550.47V479H1546.61V462.2H1550.47V468.8H1552.73C1552.98 467.456 1553.51 466.264 1554.31 465.224C1555.13 464.168 1556.15 463.352 1557.38 462.776C1558.62 462.2 1559.97 461.912 1561.44 461.912ZM1561.44 475.976C1562.37 475.976 1563.21 475.752 1563.96 475.304C1564.71 474.856 1565.3 474.224 1565.74 473.408C1566.17 472.592 1566.38 471.656 1566.38 470.6C1566.38 469.544 1566.17 468.608 1565.74 467.792C1565.3 466.976 1564.71 466.344 1563.96 465.896C1563.21 465.448 1562.37 465.224 1561.44 465.224C1560.51 465.224 1559.67 465.448 1558.92 465.896C1558.17 466.344 1557.58 466.976 1557.14 467.792C1556.71 468.608 1556.5 469.544 1556.5 470.6C1556.5 471.656 1556.71 472.592 1557.14 473.408C1557.58 474.224 1558.17 474.856 1558.92 475.304C1559.67 475.752 1560.51 475.976 1561.44 475.976ZM1590.59 470.24C1591.61 470.544 1592.4 471.04 1592.94 471.728C1593.48 472.416 1593.76 473.264 1593.76 474.272C1593.76 475.76 1593.19 476.92 1592.05 477.752C1590.93 478.584 1589.32 479 1587.23 479H1578.95V462.2H1586.77C1588.72 462.2 1590.24 462.576 1591.33 463.328C1592.42 464.08 1592.96 465.152 1592.96 466.544C1592.96 467.376 1592.76 468.112 1592.34 468.752C1591.92 469.376 1591.34 469.872 1590.59 470.24ZM1582.81 469.16H1586.44C1587.28 469.16 1587.92 468.992 1588.36 468.656C1588.79 468.304 1589 467.792 1589 467.12C1589 466.464 1588.78 465.96 1588.33 465.608C1587.9 465.256 1587.27 465.08 1586.44 465.08H1582.81V469.16ZM1587.08 476.12C1588.91 476.12 1589.82 475.4 1589.82 473.96C1589.82 472.568 1588.91 471.872 1587.08 471.872H1582.81V476.12H1587.08ZM1617.84 462.2V479H1613.95V472.112H1606.32V479H1602.43V462.2H1606.32V468.824H1613.95V462.2H1617.84ZM1632.82 475.4H1625.02L1623.53 479H1619.55L1627.04 462.2H1630.88L1638.39 479H1634.31L1632.82 475.4ZM1631.6 472.448L1628.93 466.016L1626.27 472.448H1631.6ZM1662.19 462.2V479H1640.02V462.2H1643.88V475.832H1649.18V462.2H1653.05V475.832H1658.33V462.2H1662.19ZM1678.77 475.88V479H1665.76V462.2H1678.46V465.32H1669.62V468.968H1677.42V471.992H1669.62V475.88H1678.77ZM1681.31 462.2H1685.17V473.144L1693.19 462.2H1696.84V479H1693V468.08L1684.98 479H1681.31V462.2ZM1689.06 461.12C1685.99 461.12 1684.44 459.896 1684.4 457.448H1687.07C1687.1 458.616 1687.76 459.2 1689.06 459.2C1689.7 459.2 1690.19 459.056 1690.52 458.768C1690.86 458.464 1691.04 458.024 1691.05 457.448H1693.72C1693.7 458.648 1693.31 459.56 1692.54 460.184C1691.77 460.808 1690.61 461.12 1689.06 461.12ZM1141.59 508.232H1138.9V515H1135.04V498.2H1138.9V504.992H1141.69L1146.1 498.2H1150.21L1144.71 506.312L1150.38 515H1145.96L1141.59 508.232ZM1159.54 515.288C1157.8 515.288 1156.22 514.912 1154.82 514.16C1153.42 513.408 1152.33 512.376 1151.53 511.064C1150.74 509.736 1150.35 508.248 1150.35 506.6C1150.35 504.952 1150.74 503.472 1151.53 502.16C1152.33 500.832 1153.42 499.792 1154.82 499.04C1156.22 498.288 1157.8 497.912 1159.54 497.912C1161.29 497.912 1162.86 498.288 1164.25 499.04C1165.64 499.792 1166.74 500.832 1167.54 502.16C1168.34 503.472 1168.74 504.952 1168.74 506.6C1168.74 508.248 1168.34 509.736 1167.54 511.064C1166.74 512.376 1165.64 513.408 1164.25 514.16C1162.86 514.912 1161.29 515.288 1159.54 515.288ZM1159.54 511.976C1160.54 511.976 1161.43 511.752 1162.23 511.304C1163.03 510.84 1163.66 510.2 1164.1 509.384C1164.57 508.568 1164.8 507.64 1164.8 506.6C1164.8 505.56 1164.57 504.632 1164.1 503.816C1163.66 503 1163.03 502.368 1162.23 501.92C1161.43 501.456 1160.54 501.224 1159.54 501.224C1158.55 501.224 1157.66 501.456 1156.86 501.92C1156.06 502.368 1155.42 503 1154.96 503.816C1154.51 504.632 1154.29 505.56 1154.29 506.6C1154.29 507.64 1154.51 508.568 1154.96 509.384C1155.42 510.2 1156.06 510.84 1156.86 511.304C1157.66 511.752 1158.55 511.976 1159.54 511.976ZM1186.42 515L1186.39 504.944L1181.45 513.224H1179.72L1174.78 505.136V515H1171.13V498.2H1174.35L1180.63 508.64L1186.83 498.2H1190.04L1190.07 515H1186.42ZM1208.95 498.2V515H1205.09V501.368H1197.5V515H1193.64V498.2H1208.95ZM1223.89 511.4H1216.09L1214.6 515H1210.62L1218.11 498.2H1221.95L1229.46 515H1225.38L1223.89 511.4ZM1222.67 508.448L1220 502.016L1217.34 508.448H1222.67ZM1246.5 498.2V515H1242.61V508.112H1234.98V515H1231.09V498.2H1234.98V504.824H1242.61V498.2H1246.5ZM1250.11 498.2H1253.97V509.144L1261.99 498.2H1265.63V515H1261.79V504.08L1253.78 515H1250.11V498.2ZM1269.22 498.2H1273.08V509.144L1281.1 498.2H1284.74V515H1280.9V504.08L1272.89 515H1269.22V498.2Z" fill="#FBFBFB"/>
</svg>
