<svg width="880" height="830" viewBox="0 0 880 830" fill="none" xmlns="http://www.w3.org/2000/svg">
<path d="M818 3L818 482" stroke="white" stroke-width="4"/>
<path d="M821 508L36 795" stroke="white" stroke-width="4"/>
<path d="M880 0L825.727 2.31279C822.402 2.45449 819.472 4.54121 818.251 7.63745C817.03 4.5414 814.1 2.45524 810.774 2.31472L756 0L818.251 0L880 0Z" fill="white"/>
<path d="M847 507.5C847 522.136 835.136 534 820.5 534C805.864 534 794 522.136 794 507.5C794 492.864 805.864 481 820.5 481C835.136 481 847 492.864 847 507.5Z" fill="white"/>
<path d="M71 794.5C71 814.106 55.1061 830 35.5 830C15.8939 830 0 814.106 0 794.5C0 774.894 15.8939 759 35.5 759C55.1061 759 71 774.894 71 794.5Z" fill="white"/>
</svg>
