<svg width="28" height="27" viewBox="0 0 28 27" fill="none" xmlns="http://www.w3.org/2000/svg">
<path id="Vector" d="M14 0C21.7322 0 28 6.04395 28 13.5C28 20.956 21.7322 27 14 27C11.5259 27.0038 9.09533 26.3725 6.95801 25.1707L0.00561969 27L1.89842 20.2932C0.651149 18.2316 -0.00411372 15.8868 1.94323e-05 13.5C1.94323e-05 6.04395 6.26782 0 14 0ZM9.22881 7.155L8.94881 7.1658C8.76754 7.17644 8.59039 7.22236 8.42801 7.3008C8.27614 7.38372 8.13751 7.4874 8.01641 7.60859C7.84841 7.76114 7.75321 7.89344 7.65101 8.02169C7.13318 8.67091 6.85438 9.46797 6.85861 10.287C6.86141 10.9485 7.04061 11.5924 7.32061 12.1945C7.89321 13.4122 8.83541 14.7015 10.0786 15.8962C10.3782 16.1838 10.6722 16.4727 10.9886 16.7413C12.5334 18.0528 14.3742 18.9986 16.3646 19.5034L17.1598 19.6209C17.4188 19.6344 17.6778 19.6155 17.9382 19.6033C18.3459 19.583 18.7441 19.4766 19.1044 19.2915C19.2877 19.2004 19.4667 19.1013 19.6406 18.9945C19.6406 18.9945 19.7008 18.9567 19.8156 18.873C20.0046 18.738 20.1208 18.6421 20.2776 18.4842C20.3938 18.3681 20.4946 18.2317 20.5716 18.0765C20.6808 17.8564 20.79 17.4366 20.8348 17.0869C20.8684 16.8196 20.8586 16.6738 20.8544 16.5834C20.8488 16.4389 20.7242 16.2891 20.5884 16.2256L19.7736 15.8733C19.7736 15.8733 18.5556 15.3616 17.8108 15.0349C17.7329 15.0021 17.6494 14.9834 17.5644 14.9796C17.4686 14.9701 17.3718 14.9805 17.2806 15.0101C17.1893 15.0396 17.1056 15.0877 17.0352 15.151C17.0282 15.1483 16.9344 15.2253 15.9222 16.4079C15.8641 16.4832 15.7841 16.5401 15.6923 16.5713C15.6006 16.6026 15.5012 16.6068 15.407 16.5834C15.3158 16.5598 15.2265 16.53 15.1396 16.4943C14.966 16.4241 14.9058 16.3971 14.7868 16.3485C13.9833 16.0104 13.2394 15.5535 12.5818 14.9944C12.4054 14.8459 12.2416 14.6839 12.0736 14.5273C11.5228 14.0187 11.0428 13.4433 10.6456 12.8155L10.563 12.6873C10.5037 12.6011 10.4557 12.5081 10.4202 12.4105C10.367 12.2121 10.5056 12.0528 10.5056 12.0528C10.5056 12.0528 10.8458 11.6937 11.004 11.4993C11.158 11.3103 11.2882 11.1267 11.3722 10.9957C11.5374 10.7392 11.5892 10.476 11.5024 10.2721C11.1104 9.34874 10.7044 8.42939 10.2872 7.51679C10.2046 7.33589 9.95961 7.20629 9.73701 7.18064C9.66141 7.17254 9.58581 7.16444 9.51021 7.15905C9.3222 7.15004 9.1338 7.15184 8.94601 7.16445L9.22741 7.15364L9.22881 7.155Z" fill="white"/>
</svg>
