<svg width="100" height="100" viewBox="0 0 100 100" fill="none" xmlns="http://www.w3.org/2000/svg">
<g id="Group 13">
<path id="&#226;&#128;&#156;" d="M42.8385 22L32.7453 62.0179L30.323 50.5842C34.2257 50.5842 37.4555 51.767 40.0124 54.1326C42.5694 56.4982 43.8478 59.6523 43.8478 63.595C43.8478 67.5376 42.5694 70.7575 40.0124 73.2545C37.4555 75.7515 34.293 77 30.5248 77C26.6222 77 23.3923 75.7515 20.8354 73.2545C18.2785 70.6261 17 67.4062 17 63.595C17 62.2808 17.0673 61.0323 17.2019 59.8495C17.471 58.6667 17.8747 57.2867 18.413 55.7097C18.9513 54.0012 19.6915 51.9642 20.6335 49.5986L30.1211 22H42.8385ZM80.9907 22L70.8975 62.0179L68.4752 50.5842C72.3778 50.5842 75.6077 51.767 78.1646 54.1326C80.7215 56.4982 82 59.6523 82 63.595C82 67.5376 80.7215 70.7575 78.1646 73.2545C75.6077 75.7515 72.4451 77 68.677 77C64.7743 77 61.5445 75.7515 58.9876 73.2545C56.4306 70.6261 55.1522 67.4062 55.1522 63.595C55.1522 62.2808 55.2195 61.0323 55.354 59.8495C55.6232 58.6667 56.0269 57.2867 56.5652 55.7097C57.1035 54.0012 57.8437 51.9642 58.7857 49.5986L68.2733 22H80.9907Z" fill="#E44D0C"/>
</g>
</svg>
