<svg width="106" height="341" viewBox="0 0 106 341" fill="none" xmlns="http://www.w3.org/2000/svg">
<path d="M19.5 6L19.5 129" stroke="white"/>
<path d="M106 129L27 129" stroke="white"/>
<path d="M27 129.5C27 133.642 23.6421 137 19.5 137C15.3579 137 12 133.642 12 129.5C12 125.358 15.3579 122 19.5 122C23.6421 122 27 125.358 27 129.5Z" fill="white"/>
<path d="M39 0L25.5278 1.91202C22.3934 2.35686 19.9512 4.85613 19.5789 8C19.2067 4.85692 16.7633 2.35928 13.6292 1.91818L0 0L19.5789 0L39 0Z" fill="white"/>
<path d="M19 129L19 293" stroke="white"/>
<path d="M27 333.5C27 337.642 23.6421 341 19.5 341C15.3579 341 12 337.642 12 333.5C12 329.358 15.3579 326 19.5 326C23.6421 326 27 329.358 27 333.5Z" fill="white"/>
</svg>
