<svg width="68" height="68" viewBox="0 0 68 68" fill="none" xmlns="http://www.w3.org/2000/svg">
<rect x="1" y="1" width="66" height="66" rx="33" stroke="white" stroke-width="2"/>
<path d="M32.5798 22.5801L22.5798 32.5801C22.3977 32.7703 22.255 32.9946 22.1598 33.2401C21.9598 33.727 21.9598 34.2732 22.1598 34.7601C22.255 35.0056 22.3977 35.2299 22.5798 35.4201L32.5798 45.4201C32.7663 45.6066 32.9876 45.7545 33.2313 45.8554C33.4749 45.9564 33.7361 46.0083 33.9998 46.0083C34.5324 46.0083 35.0432 45.7967 35.4198 45.4201C35.7964 45.0435 36.008 44.5327 36.008 44.0001C36.008 43.4675 35.7964 42.9567 35.4198 42.5801L28.8198 36.0001H43.9998C44.5302 36.0001 45.0389 35.7894 45.414 35.4143C45.7891 35.0393 45.9998 34.5306 45.9998 34.0001C45.9998 33.4697 45.7891 32.961 45.414 32.5859C45.0389 32.2108 44.5302 32.0001 43.9998 32.0001H28.8198L35.4198 25.4201C35.6073 25.2342 35.756 25.013 35.8576 24.7693C35.9591 24.5256 36.0114 24.2641 36.0114 24.0001C36.0114 23.7361 35.9591 23.4747 35.8576 23.231C35.756 22.9872 35.6073 22.766 35.4198 22.5801C35.2339 22.3927 35.0127 22.2439 34.7689 22.1423C34.5252 22.0408 34.2638 21.9885 33.9998 21.9885C33.7358 21.9885 33.4744 22.0408 33.2306 22.1423C32.9869 22.2439 32.7657 22.3927 32.5798 22.5801Z" fill="white"/>
</svg>
