<svg width="370" height="370" viewBox="0 0 370 370" fill="none" xmlns="http://www.w3.org/2000/svg">
<path d="M179.861 351.313L178.423 351.231L169.619 360.635L168.118 360.549L168.154 359.91L176.958 350.507L167.02 338.692L167.057 338.053L168.782 338.151L178.482 349.632L179.952 349.716L180.571 338.821L182.264 338.917L180.993 361.281L179.3 361.185L179.861 351.313Z" fill="white"/>
<path d="M148.52 335.882C147.213 335.569 145.942 335.518 144.708 335.728C143.448 335.954 142.311 336.395 141.299 337.053C140.261 337.726 139.365 338.587 138.61 339.635C137.85 340.704 137.307 341.923 136.98 343.293C136.653 344.662 136.59 345.985 136.79 347.261C136.984 348.557 137.395 349.73 138.022 350.779C138.628 351.823 139.445 352.72 140.473 353.47C141.474 354.235 142.629 354.774 143.936 355.086C145.243 355.398 146.527 355.441 147.787 355.216C149.021 355.006 150.155 354.575 151.188 353.922C152.201 353.264 153.087 352.401 153.846 351.332C154.601 350.284 155.142 349.076 155.469 347.706C155.796 346.336 155.862 345.003 155.667 343.707C155.467 342.431 155.066 341.26 154.465 340.196C153.838 339.147 153.024 338.24 152.022 337.474C150.995 336.724 149.828 336.194 148.52 335.882ZM148.907 334.263C150.484 334.639 151.88 335.269 153.095 336.151C154.284 337.049 155.245 338.123 155.978 339.372C156.689 340.617 157.162 341.991 157.395 343.494C157.608 344.993 157.523 346.541 157.142 348.138C156.766 349.715 156.147 351.114 155.285 352.334C154.398 353.57 153.358 354.572 152.166 355.34C150.948 356.124 149.608 356.637 148.146 356.881C146.659 357.14 145.127 357.081 143.55 356.704C141.973 356.328 140.589 355.691 139.4 354.793C138.185 353.91 137.222 352.847 136.51 351.602C135.777 350.353 135.305 348.979 135.092 347.481C134.859 345.977 134.933 344.427 135.314 342.829C135.691 341.252 136.322 339.846 137.21 338.61C138.071 337.39 139.111 336.388 140.329 335.604C141.521 334.836 142.861 334.322 144.348 334.063C145.81 333.82 147.33 333.887 148.907 334.263Z" fill="white"/>
<path d="M110.662 332.721L122.559 338.099L127.172 327.894L128.718 328.592L119.491 349.004L117.945 348.305L121.887 339.586L109.99 334.209L106.048 342.927L104.503 342.229L113.73 321.817L115.275 322.516L110.662 332.721Z" fill="white"/>
<path d="M95.2091 309.928C96.6828 310.947 97.867 312.104 98.7619 313.398C99.6447 314.709 100.225 316.083 100.502 317.52C100.779 318.957 100.753 320.418 100.426 321.904C100.081 323.377 99.429 324.807 98.47 326.193C97.5233 327.561 96.4125 328.66 95.1377 329.49C93.8629 330.321 92.5043 330.859 91.0621 331.107C89.6023 331.342 88.112 331.283 86.5913 330.932C85.0706 330.58 83.5822 329.9 82.1261 328.893C80.8981 328.043 79.9108 327.127 79.1644 326.143C78.418 325.16 77.8551 324.174 77.4757 323.185L79.0683 322.458C79.3951 323.41 79.8972 324.316 80.5748 325.174C81.2402 326.049 82.0554 326.821 83.0203 327.488C84.3185 328.386 85.6308 328.983 86.9572 329.278C88.2836 329.573 89.5701 329.607 90.8167 329.38C92.0458 329.141 93.2019 328.67 94.2852 327.967C95.3509 327.251 96.2722 326.332 97.049 325.209C97.8865 323.999 98.4495 322.754 98.7379 321.475C98.9966 320.201 99.0064 318.95 98.7672 317.721C98.5159 316.509 98.0211 315.35 97.2827 314.242C96.5323 313.152 95.5518 312.188 94.3413 311.351C93.3237 310.647 92.2469 310.122 91.1107 309.777C89.9746 309.432 88.8317 309.303 87.6822 309.39L87.7384 307.677C88.7395 307.618 89.906 307.75 91.2378 308.075C92.552 308.388 93.8758 309.005 95.2091 309.928Z" fill="white"/>
<path d="M79.7062 297.425C79.9505 297.663 80.1877 297.94 80.4178 298.254L79.2331 299.467C78.9572 299.109 78.7353 298.847 78.5674 298.683C78.0789 298.207 77.4949 297.95 76.8156 297.913C76.1363 297.876 75.3914 298.028 74.5809 298.37L74.2205 298.51L68.1976 316.912L67.7282 317.393L66.629 316.32L72.2845 299.348L56.1868 306.128L55.1105 305.077L55.5799 304.596L73.908 296.997C75.3491 296.407 76.5155 296.174 77.4071 296.299C78.2987 296.424 79.065 296.799 79.7062 297.425Z" fill="white"/>
<path d="M65.9832 283.26C66.1352 283.466 66.2511 283.659 66.3307 283.839C66.4104 284.019 66.4648 284.164 66.4938 284.275L65.0777 285.321C64.9482 284.965 64.8011 284.676 64.6364 284.453C64.3703 284.093 63.9733 283.842 63.4453 283.702C62.8875 283.556 62.1124 283.638 61.1202 283.946C60.0981 284.25 58.8028 284.848 57.2343 285.74C55.6657 286.633 53.7229 287.934 51.4056 289.644L45.6641 293.882L38.3481 283.969L56.371 270.668L57.3971 272.058L40.6616 284.41L45.9253 291.541L50.8172 287.931C53.2889 286.107 55.3944 284.738 57.1338 283.826C58.8731 282.913 60.3347 282.325 61.5187 282.061C62.7026 281.797 63.6477 281.802 64.3538 282.076C65.0474 282.334 65.5905 282.728 65.9832 283.26Z" fill="white"/>
<path d="M30.3831 271.022L29.5992 269.518L37.4029 265.45L35.7465 262.272C35.2239 261.27 34.9163 260.287 34.8238 259.325C34.7313 258.363 34.8308 257.469 35.1222 256.643C35.3849 255.809 35.8018 255.062 36.3728 254.404C36.9437 253.745 37.6265 253.209 38.4211 252.795C39.1967 252.391 40.0274 252.138 40.9131 252.038C41.7799 251.947 42.64 252.028 43.4935 252.28C44.3371 252.514 45.1362 252.94 45.8909 253.557C46.6357 254.155 47.2743 254.965 47.8067 255.986L50.2471 260.669L30.3831 271.022ZM46.463 256.939C46.039 256.126 45.5414 255.471 44.9701 254.975C44.3988 254.479 43.7965 254.131 43.1634 253.932C42.5205 253.714 41.8704 253.644 41.2133 253.721C40.5373 253.809 39.8872 254.016 39.2629 254.341C38.6386 254.666 38.1064 255.076 37.6662 255.57C37.2071 256.074 36.8779 256.643 36.6787 257.276C36.4794 257.909 36.4195 258.602 36.4989 259.354C36.5784 260.107 36.8301 260.89 37.2541 261.703L38.8218 264.711L48.016 259.919L46.463 256.939Z" fill="white"/>
<path d="M19.8969 244L21.9728 249.85L20.4347 250.396L15.7051 237.066L17.2431 236.52L19.319 242.371L38.8915 235.426L39.4693 237.055L19.8969 244Z" fill="white"/>
<path d="M10.9545 219.174L10.8615 218.704L31.3449 205.163L31.7047 206.984L25.5516 211.005L27.4688 220.706L34.6828 222.052L35.0364 223.842L10.9545 219.174ZM25.775 220.388L24.1061 211.943L14.5213 218.241L25.775 220.388Z" fill="white"/>
<path d="M30.0564 179.661L30.5166 196.647L8.12486 197.253L8.07892 195.558L28.8393 194.996L28.5169 183.096L7.75648 183.658L7.70967 181.931L28.4701 181.369L28.3808 178.074L34.0107 177.921L34.0549 179.553L30.0564 179.661Z" fill="white"/>
<path d="M8.57774 165.762L8.84258 164.086L27.649 167.06L11.1078 149.963L11.2627 148.983L33.3879 152.481L33.1231 154.156L14.4747 151.208L30.9045 168.19L30.7346 169.264L8.57774 165.762Z" fill="white"/>
<path d="M35.1922 142.406L28.4072 134.178C27.9735 134.797 27.4727 135.315 26.9047 135.732C26.3165 136.141 25.7051 136.453 25.0702 136.667C24.422 136.854 23.7707 136.95 23.1163 136.955C22.4485 136.932 21.7911 136.812 21.1442 136.594C20.3152 136.315 19.5778 135.898 18.9319 135.343C18.2657 134.781 17.7449 134.122 17.3695 133.365C16.994 132.608 16.7773 131.781 16.7193 130.884C16.648 129.959 16.7791 129.002 17.1127 128.011L18.808 122.977L40.0366 130.126L39.4851 131.763L30.5691 128.761L29.4662 132.036L29.2823 132.582L36.3397 141.104L35.829 142.62L35.1922 142.406ZM29.0225 128.24L19.8032 125.135L18.7615 128.229C18.4823 129.057 18.3551 129.836 18.3799 130.565C18.4114 131.273 18.5646 131.922 18.8394 132.509C19.121 133.077 19.5074 133.567 19.9986 133.98C20.4898 134.393 21.0488 134.705 21.6755 134.916C22.3023 135.127 22.9362 135.217 23.5771 135.185C24.2047 135.126 24.8023 134.956 25.3698 134.675C25.924 134.366 26.4279 133.939 26.8816 133.394C27.3352 132.849 27.6982 132.172 27.9706 131.364L29.0225 128.24Z" fill="white"/>
<path d="M41.1626 99.1005L41.9345 97.8849L38.0131 85.6147L38.8194 84.3451L39.3596 84.6882L43.281 96.9584L58.4408 94.038L58.9811 94.3811L58.0548 95.8399L43.3023 98.7156L42.5132 99.9582L51.7248 105.808L50.8157 107.24L31.9062 95.2316L32.8154 93.7998L41.1626 99.1005Z" fill="white"/>
<path d="M69.91 79.2528C70.8195 78.2633 71.4835 77.1785 71.9018 75.9983C72.3189 74.788 72.487 73.5806 72.4061 72.3761C72.3239 71.1415 72.0091 69.9394 71.4616 68.7697C70.8984 67.5855 70.0985 66.517 69.0619 65.5642C68.0253 64.6113 66.9012 63.9113 65.6896 63.4641C64.4623 63.0024 63.2379 62.7897 62.0165 62.826C60.8095 62.8467 59.6283 63.1229 58.4731 63.6547C57.3165 64.1563 56.2835 64.9019 55.3739 65.8914C54.4644 66.8808 53.8011 67.9808 53.384 69.1911C52.9657 70.3713 52.7897 71.5714 52.8562 72.7916C52.9371 73.9961 53.2591 75.1904 53.8223 76.3745C54.3698 77.5442 55.1619 78.6055 56.1985 79.5584C57.2351 80.5112 58.3671 81.2185 59.5944 81.6801C60.806 82.1274 62.0231 82.3479 63.2458 82.3417C64.4672 82.3054 65.6562 82.0364 66.8128 81.5347C67.9681 81.0029 69.0005 80.2423 69.91 79.2528ZM71.1351 80.3789C70.0379 81.5726 68.808 82.485 67.4455 83.1161C66.0818 83.717 64.6759 84.0329 63.2277 84.0637C61.794 84.0787 60.364 83.8219 58.9376 83.2931C57.5256 82.7486 56.2149 81.9206 55.0055 80.8089C53.8119 79.7117 52.8923 78.4897 52.2467 77.1429C51.5999 75.766 51.2316 74.3698 51.1418 72.9544C51.0508 71.5088 51.2552 70.0885 51.7551 68.6935C52.2537 67.2683 53.0517 65.9589 54.1489 64.7653C55.2461 63.5716 56.4766 62.6743 57.8403 62.0733C59.2028 61.4422 60.6009 61.1191 62.0346 61.1041C63.4827 61.0733 64.9128 61.3302 66.3247 61.8746C67.7511 62.4034 69.069 63.2236 70.2784 64.3353C71.4721 65.4325 72.3923 66.6696 73.0391 68.0465C73.6847 69.3932 74.053 70.7894 74.144 72.235C74.2338 73.6505 74.0294 75.0708 73.5308 76.4959C73.0309 77.8909 72.2323 79.1852 71.1351 80.3789Z" fill="white"/>
<path d="M91.1177 47.7337L80.6241 55.5018L87.288 64.5037L85.9249 65.5128L72.5971 47.5091L73.9602 46.5L79.6531 54.1902L90.1466 46.422L84.4538 38.7318L85.8169 37.7227L99.1447 55.7264L97.7815 56.7355L91.1177 47.7337Z" fill="white"/>
<path d="M118.552 45.3467C116.944 46.1367 115.357 46.6072 113.791 46.7583C112.216 46.8902 110.733 46.727 109.344 46.2687C107.954 45.8104 106.69 45.0763 105.552 44.0665C104.434 43.0472 103.503 41.7812 102.76 40.2684C102.027 38.7749 101.608 37.2692 101.504 35.7515C101.401 34.2338 101.592 32.7849 102.079 31.405C102.585 30.0156 103.362 28.7427 104.41 27.5861C105.458 26.4296 106.777 25.4611 108.366 24.6805C109.707 24.0221 110.988 23.6067 112.211 23.4341C113.433 23.2615 114.569 23.2505 115.617 23.4011L115.476 25.146C114.485 24.9673 113.45 24.9647 112.37 25.1383C111.282 25.2927 110.211 25.6286 109.157 26.1458C107.74 26.8418 106.58 27.697 105.676 28.7114C104.772 29.7259 104.115 30.8327 103.706 32.0319C103.316 33.2217 103.164 34.461 103.25 35.7496C103.356 37.0288 103.709 38.2812 104.311 39.5067C104.96 40.8279 105.773 41.9261 106.749 42.8013C107.736 43.6479 108.824 44.2662 110.013 44.6563C111.194 45.0272 112.447 45.1602 113.774 45.0551C115.092 44.9309 116.411 44.5444 117.733 43.8954C118.843 43.35 119.826 42.6652 120.681 41.8413C121.536 41.0173 122.206 40.0823 122.69 39.0363L124.158 39.9197C123.722 40.8229 123.038 41.7769 122.105 42.7816C121.192 43.7769 120.008 44.6319 118.552 45.3467Z" fill="white"/>
<path d="M137.024 37.9019C136.697 37.9991 136.34 38.0716 135.954 38.1195L135.472 36.4936C135.919 36.4275 136.256 36.361 136.481 36.2942C137.135 36.1 137.644 35.7153 138.007 35.1402C138.371 34.565 138.601 33.8403 138.697 32.966L138.75 32.583L125.616 18.3561L125.425 17.7119L126.897 17.2749L138.962 30.4841L140.886 13.1231L142.328 12.6952L142.519 13.3395L140.223 33.0471C140.037 34.5934 139.672 35.7254 139.128 36.443C138.585 37.1607 137.883 37.647 137.024 37.9019Z" fill="white"/>
<path d="M156.081 32.8207C155.827 32.853 155.602 32.8602 155.406 32.8422C155.21 32.8241 155.057 32.8007 154.945 32.7718L154.723 31.026C155.096 31.0859 155.42 31.0984 155.695 31.0633C156.14 31.0066 156.552 30.782 156.932 30.3895C157.331 29.973 157.637 29.2565 157.852 28.2399C158.085 27.1994 158.194 25.7769 158.178 23.9723C158.163 22.1677 157.974 19.837 157.61 16.9801L156.707 9.90139L168.928 8.3432L171.761 30.5633L170.047 30.7819L167.416 10.1489L158.624 11.27L159.392 17.3012C159.781 20.3485 159.95 22.8539 159.899 24.8174C159.848 26.781 159.65 28.344 159.303 29.5064C158.957 30.6689 158.492 31.4917 157.908 31.9747C157.346 32.455 156.737 32.737 156.081 32.8207Z" fill="white"/>
<path d="M184.116 7.69733L185.811 7.74572L185.56 16.5421L189.143 16.6444C190.273 16.6766 191.281 16.8868 192.166 17.2749C193.051 17.663 193.783 18.1854 194.362 18.8422C194.963 19.4783 195.412 20.206 195.708 21.0255C196.005 21.845 196.141 22.7025 196.115 23.5981C196.09 24.4725 195.906 25.3209 195.562 26.1434C195.219 26.9446 194.729 27.6563 194.093 28.2783C193.477 28.901 192.716 29.3915 191.81 29.7498C190.925 30.1087 189.906 30.2717 188.755 30.2389L183.477 30.0882L184.116 7.69733ZM188.577 28.6011C189.494 28.6273 190.309 28.5118 191.02 28.2547C191.732 27.9975 192.329 27.6411 192.811 27.1853C193.315 26.7302 193.693 26.1968 193.946 25.5851C194.198 24.952 194.335 24.2836 194.355 23.5799C194.375 22.8762 194.277 22.2118 194.06 21.5867C193.843 20.9402 193.507 20.3758 193.052 19.8932C192.596 19.4107 192.02 19.0208 191.324 18.7235C190.628 18.4262 189.822 18.2644 188.905 18.2383L185.515 18.1415L185.219 28.5053L188.577 28.6011Z" fill="white"/>
<path d="M212.823 11.7081L206.702 10.6699L206.975 9.06085L220.92 11.4263L220.647 13.0353L214.526 11.9971L211.053 32.4726L209.349 32.1836L212.823 11.7081Z" fill="white"/>
<path d="M238.858 15.9968L239.315 16.145L241.157 40.63L239.392 40.057L238.879 32.7243L229.474 29.6715L224.782 35.3147L223.048 34.7516L238.858 15.9968ZM230.577 28.3472L238.764 31.0049L237.935 19.5662L230.577 28.3472Z" fill="white"/>
<path d="M264.054 51.9319L248.998 44.0566L259.379 24.2077L260.882 24.9937L251.257 43.3965L261.805 48.9136L271.43 30.5108L272.962 31.3117L263.336 49.7145L266.257 51.2421L263.647 56.2327L262.201 55.4763L264.054 51.9319Z" fill="white"/>
<path d="M286.659 39.9492L287.992 40.9968L276.232 55.9704L299.222 49.8572L300.002 50.4699L286.166 68.086L284.832 67.0384L296.494 52.1906L273.658 58.2624L272.803 57.5904L286.659 39.9492Z" fill="white"/>
<path d="M294.084 74.5709L304.575 72.6553C304.246 71.9748 304.037 71.2851 303.95 70.5862C303.879 69.8729 303.905 69.187 304.027 68.5284C304.18 67.8713 304.414 67.2558 304.729 66.6821C305.073 66.1098 305.499 65.5942 306.004 65.1355C306.652 64.5476 307.376 64.107 308.175 63.8134C308.99 63.5056 309.82 63.3721 310.664 63.413C311.508 63.4539 312.335 63.6677 313.147 64.0544C313.989 64.4426 314.762 65.0237 315.464 65.7977L319.034 69.7313L302.447 84.7853L301.286 83.5057L308.252 77.183L305.93 74.6238L305.542 74.1973L294.662 76.2073L293.586 75.0225L294.084 74.5709ZM309.461 76.0862L316.664 69.5485L314.471 67.1315C313.883 66.4838 313.265 65.9932 312.616 65.6598C311.982 65.3421 311.342 65.16 310.695 65.1135C310.062 65.0829 309.445 65.1814 308.845 65.4091C308.245 65.6367 307.7 65.9728 307.211 66.4172C306.721 66.8617 306.334 67.3715 306.049 67.9467C305.795 68.5234 305.652 69.1281 305.621 69.761C305.621 70.3953 305.748 71.0433 306.003 71.705C306.258 72.3668 306.672 73.0136 307.246 73.6455L309.461 76.0862Z" fill="white"/>
<path d="M335.834 114.021L336.404 115.343L348.753 119.007L349.349 120.388L348.761 120.642L336.412 116.978L330.294 131.152L329.706 131.406L329.022 129.819L334.947 116.006L334.364 114.655L324.345 118.977L323.673 117.42L344.241 108.547L344.913 110.104L335.834 114.021Z" fill="white"/>
<path d="M336.061 148.954C336.367 150.263 336.89 151.422 337.63 152.432C338.396 153.458 339.299 154.277 340.34 154.888C341.407 155.515 342.578 155.931 343.853 156.137C345.149 156.338 346.482 156.278 347.853 155.957C349.224 155.636 350.436 155.101 351.487 154.351C352.56 153.597 353.424 152.704 354.082 151.674C354.744 150.665 355.18 149.533 355.391 148.279C355.627 147.041 355.592 145.767 355.286 144.459C354.98 143.15 354.444 141.983 353.679 140.957C352.939 139.947 352.046 139.126 351 138.494C349.958 137.883 348.79 137.477 347.494 137.276C346.219 137.07 344.896 137.128 343.525 137.448C342.154 137.769 340.933 138.307 339.86 139.061C338.809 139.811 337.941 140.693 337.258 141.707C336.601 142.737 336.154 143.871 335.918 145.11C335.707 146.364 335.755 147.646 336.061 148.954ZM334.441 149.333C334.072 147.754 334.01 146.224 334.255 144.743C334.525 143.277 335.056 141.937 335.845 140.723C336.64 139.53 337.657 138.492 338.897 137.611C340.141 136.75 341.563 136.133 343.163 135.758C344.742 135.389 346.269 135.317 347.746 135.541C349.248 135.782 350.609 136.263 351.83 136.985C353.076 137.724 354.135 138.692 355.007 139.89C355.904 141.104 356.537 142.501 356.907 144.08C357.276 145.658 357.325 147.18 357.054 148.646C356.809 150.127 356.289 151.465 355.495 152.658C354.705 153.873 353.688 154.91 352.444 155.771C351.204 156.652 349.784 157.28 348.184 157.654C346.606 158.023 345.065 158.088 343.563 157.848C342.087 157.623 340.725 157.142 339.479 156.404C338.258 155.681 337.199 154.713 336.302 153.499C335.43 152.3 334.81 150.912 334.441 149.333Z" fill="white"/>
<path d="M350.179 184.223L349.664 171.177L338.472 171.619L338.405 169.925L360.788 169.04L360.855 170.735L351.294 171.113L351.81 184.159L361.37 183.781L361.437 185.476L339.055 186.36L338.988 184.665L350.179 184.223Z" fill="white"/>
<path d="M336.712 208.244C336.964 206.47 337.469 204.893 338.225 203.514C339.002 202.137 339.972 201.004 341.133 200.113C342.293 199.222 343.611 198.591 345.087 198.219C346.559 197.868 348.129 197.811 349.797 198.048C351.445 198.282 352.925 198.784 354.238 199.552C355.551 200.321 356.641 201.294 357.507 202.473C358.371 203.674 358.986 205.032 359.352 206.55C359.718 208.067 359.776 209.702 359.527 211.455C359.317 212.934 358.939 214.227 358.394 215.334C357.849 216.442 357.219 217.387 356.504 218.168L355.141 217.07C355.847 216.351 356.431 215.497 356.895 214.507C357.38 213.52 357.706 212.446 357.871 211.284C358.093 209.721 358.039 208.281 357.709 206.963C357.38 205.644 356.834 204.479 356.073 203.465C355.309 202.473 354.371 201.65 353.257 200.996C352.14 200.364 350.906 199.951 349.554 199.759C348.097 199.552 346.732 199.605 345.459 199.92C344.204 200.259 343.08 200.81 342.088 201.574C341.117 202.341 340.302 203.303 339.642 204.458C339.003 205.617 338.58 206.926 338.373 208.383C338.199 209.608 338.212 210.806 338.412 211.976C338.612 213.147 339.007 214.226 339.599 215.216L338.043 215.932C337.542 215.063 337.138 213.961 336.833 212.624C336.524 211.309 336.484 209.849 336.712 208.244Z" fill="white"/>
<path d="M332.47 227.703C332.574 227.378 332.715 227.042 332.893 226.696L334.508 227.212C334.311 227.619 334.176 227.934 334.105 228.158C333.897 228.808 333.929 229.445 334.2 230.069C334.471 230.693 334.94 231.291 335.609 231.863L335.895 232.123L355.047 229.273L355.687 229.477L355.22 230.94L337.511 233.479L350.779 244.84L350.321 246.273L349.681 246.068L334.683 233.079C333.509 232.055 332.779 231.116 332.492 230.263C332.205 229.41 332.197 228.556 332.47 227.703Z" fill="white"/>
<path d="M325.945 246.314C326.061 246.086 326.182 245.896 326.307 245.745C326.432 245.593 326.538 245.479 326.624 245.403L328.192 246.202C327.933 246.477 327.74 246.738 327.614 246.985C327.411 247.384 327.365 247.851 327.475 248.386C327.595 248.95 328.015 249.607 328.735 250.356C329.464 251.134 330.578 252.025 332.078 253.028C333.578 254.031 335.612 255.186 338.178 256.493L344.537 259.731L338.947 270.71L318.986 260.546L319.77 259.006L338.306 268.444L342.327 260.545L336.909 257.786C334.172 256.392 332.006 255.122 330.411 253.975C328.817 252.828 327.637 251.784 326.871 250.844C326.105 249.903 325.686 249.056 325.615 248.301C325.535 247.566 325.645 246.904 325.945 246.314Z" fill="white"/>
<path d="M330.934 283.628L329.94 285.002L322.81 279.844L320.709 282.747C320.047 283.663 319.306 284.378 318.487 284.892C317.668 285.405 316.824 285.716 315.955 285.825C315.091 285.963 314.237 285.925 313.393 285.709C312.548 285.493 311.763 285.122 311.037 284.597C310.329 284.085 309.731 283.455 309.245 282.708C308.775 281.973 308.463 281.168 308.307 280.292C308.138 279.433 308.161 278.527 308.375 277.576C308.577 276.643 309.015 275.709 309.691 274.776L312.785 270.498L330.934 283.628ZM311.144 275.551C310.606 276.294 310.244 277.032 310.056 277.765C309.868 278.498 309.826 279.192 309.931 279.848C310.024 280.52 310.252 281.133 310.616 281.686C310.997 282.251 311.473 282.74 312.043 283.153C312.613 283.565 313.218 283.858 313.857 284.03C314.513 284.215 315.169 284.255 315.824 284.15C316.479 284.045 317.126 283.788 317.763 283.381C318.4 282.973 318.988 282.397 319.526 281.654L321.514 278.906L313.114 272.829L311.144 275.551Z" fill="white"/>
<path d="M311.462 305.099L315.765 300.625L316.942 301.756L307.138 311.951L305.962 310.82L310.265 306.345L295.294 291.951L296.492 290.705L311.462 305.099Z" fill="white"/>
<path d="M293.265 324.207L292.886 324.501L271.609 312.244L273.077 311.107L279.427 314.81L287.243 308.754L285.219 301.7L286.661 300.583L293.265 324.207ZM287.717 310.41L280.912 315.682L290.834 321.435L287.717 310.41Z" fill="white"/>
<path d="M249.381 324.81L264.364 316.796L274.929 336.548L273.433 337.348L263.638 319.035L253.142 324.649L262.936 342.962L261.412 343.777L251.618 325.464L248.711 327.019L246.055 322.052L247.494 321.283L249.381 324.81Z" fill="white"/>
<path d="M246.564 350.238L244.948 350.751L239.189 332.602L231.304 355.046L230.358 355.346L223.584 333.995L225.2 333.482L230.91 351.478L238.743 329.185L239.78 328.856L246.564 350.238Z" fill="white"/>
<path d="M213.767 336.891L209.446 346.641C210.194 346.752 210.881 346.968 211.508 347.289C212.137 347.632 212.69 348.039 213.165 348.511C213.623 349.007 214 349.547 214.297 350.13C214.576 350.737 214.763 351.378 214.858 352.054C214.979 352.921 214.936 353.767 214.729 354.593C214.524 355.44 214.168 356.201 213.659 356.875C213.15 357.55 212.508 358.114 211.731 358.567C210.936 359.045 210.021 359.356 208.986 359.501L203.725 360.238L200.617 338.055L202.328 337.815L203.634 347.132L207.056 346.653L207.627 346.573L212.089 336.448L213.674 336.226L213.767 336.891ZM203.86 348.748L205.21 358.382L208.443 357.929C209.309 357.808 210.062 357.573 210.703 357.225C211.322 356.88 211.833 356.453 212.236 355.944C212.617 355.438 212.883 354.873 213.032 354.249C213.182 353.625 213.211 352.985 213.119 352.33C213.027 351.675 212.824 351.068 212.508 350.509C212.175 349.975 211.755 349.516 211.249 349.135C210.725 348.777 210.118 348.518 209.428 348.356C208.737 348.194 207.97 348.173 207.124 348.291L203.86 348.748Z" fill="white"/>
</svg>
