<svg width="370" height="370" viewBox="0 0 370 370" fill="none" xmlns="http://www.w3.org/2000/svg">
<g filter="url(#filter0_f_84_143)">
<circle cx="186" cy="185" r="113" fill="#E44D0C"/>
<circle cx="186" cy="185" r="119" stroke="#DE0000" stroke-width="12"/>
</g>
<path d="M223.997 203.639V216.435C224.002 217.623 223.758 218.798 223.282 219.887C222.805 220.975 222.105 221.952 221.228 222.755C220.351 223.558 219.316 224.17 218.188 224.55C217.061 224.931 215.866 225.072 214.681 224.965C201.529 223.539 188.897 219.054 177.798 211.871C167.472 205.322 158.717 196.585 152.155 186.279C144.932 175.152 140.438 162.483 139.035 149.299C138.928 148.119 139.068 146.931 139.447 145.808C139.826 144.686 140.435 143.654 141.235 142.78C142.035 141.905 143.008 141.206 144.094 140.728C145.179 140.249 146.353 140.002 147.54 140H160.361C162.435 139.98 164.446 140.713 166.018 142.063C167.591 143.413 168.618 145.287 168.908 147.337C169.45 151.432 170.453 155.452 171.9 159.322C172.475 160.849 172.599 162.508 172.259 164.103C171.918 165.698 171.126 167.162 169.977 168.322L164.549 173.739C170.633 184.417 179.492 193.259 190.192 199.331L195.619 193.914C196.781 192.767 198.249 191.977 199.847 191.637C201.445 191.296 203.107 191.421 204.637 191.995C208.515 193.439 212.543 194.44 216.646 194.98C218.723 195.273 220.619 196.316 221.974 197.913C223.329 199.509 224.049 201.547 223.997 203.639Z" stroke="white" stroke-width="4" stroke-linecap="round" stroke-linejoin="round"/>
<defs>
<filter id="filter0_f_84_143" x="4.9" y="3.9" width="362.2" height="362.2" filterUnits="userSpaceOnUse" color-interpolation-filters="sRGB">
<feFlood flood-opacity="0" result="BackgroundImageFix"/>
<feBlend mode="normal" in="SourceGraphic" in2="BackgroundImageFix" result="shape"/>
<feGaussianBlur stdDeviation="28.05" result="effect1_foregroundBlur_84_143"/>
</filter>
</defs>
</svg>
